<?xml version="1.0" encoding="utf-8"?>
<!-- Generator: Adobe Illustrator 26.3.1, SVG Export Plug-In . SVG Version: 6.00 Build 0)  -->
<svg version="1.1" id="Layer_1" xmlns="http://www.w3.org/2000/svg" xmlns:xlink="http://www.w3.org/1999/xlink" x="0px" y="0px"
	 viewBox="0 0 266.94 83.33" style="enable-background:new 0 0 266.94 83.33;" xml:space="preserve">
<style type="text/css">
	.st0{fill:#FFFFFF;}
	.st1{fill:#FEBE10;}
	.st2{fill-rule:evenodd;clip-rule:evenodd;}
	.st3{fill-rule:evenodd;clip-rule:evenodd;fill:#FFFFFF;}
	.st4{fill-rule:evenodd;clip-rule:evenodd;fill:#FEBE10;}
	.st5{fill-rule:evenodd;clip-rule:evenodd;fill:#17366D;}
	.st6{enable-background:new    ;}
	.st7{fill:#FEBE10;enable-background:new    ;}
	.st8{fill:#FFFFFF;enable-background:new    ;}
	.st9{fill:#17366D;}
	.st10{clip-path:url(#SVGID_00000020396488072323661230000004912420756666964376_);}
	.st11{clip-path:url(#SVGID_00000020396488072323661230000004912420756666964376_);fill-rule:evenodd;clip-rule:evenodd;}
	
		.st12{clip-path:url(#SVGID_00000020396488072323661230000004912420756666964376_);fill-rule:evenodd;clip-rule:evenodd;fill:#FFFFFF;}
	
		.st13{clip-path:url(#SVGID_00000020396488072323661230000004912420756666964376_);fill-rule:evenodd;clip-rule:evenodd;fill:#FEBE10;}
	
		.st14{clip-path:url(#SVGID_00000020396488072323661230000004912420756666964376_);fill-rule:evenodd;clip-rule:evenodd;fill:#17366D;}
</style>
<g>
	<g>
		<path class="st0" d="M70.61,3.23h6.25l6.93,11.15l6.93-11.15h6.25v26.37h-5.76V12.38L83.8,23.64h-0.15L76.3,12.49v17.1h-5.69V3.23
			z"/>
		<path class="st0" d="M100.75,16.49v-0.08c0-7.5,5.91-13.64,14.05-13.64c8.14,0,13.98,6.06,13.98,13.56v0.08
			c0,7.5-5.91,13.64-14.05,13.64C106.59,30.05,100.75,23.98,100.75,16.49z M122.71,16.49v-0.08c0-4.52-3.31-8.29-7.99-8.29
			c-4.67,0-7.91,3.69-7.91,8.21v0.08c0,4.52,3.32,8.29,7.99,8.29S122.71,21.01,122.71,16.49z"/>
		<path class="st0" d="M132.55,3.23h5.35l12.36,16.24V3.23h5.73v26.37h-4.93l-12.77-16.76v16.76h-5.73V3.23z"/>
		<path class="st0" d="M167.06,8.57h-8.02V3.23h21.85v5.35h-8.02v21.02h-5.8V8.57z"/>
		<path class="st0" d="M189.58,3.04h5.35l11.3,26.56h-6.06l-2.41-5.91h-11.15l-2.41,5.91h-5.91L189.58,3.04z M195.69,18.56
			l-3.5-8.55l-3.5,8.55H195.69z"/>
		<path class="st0" d="M208.91,3.23h5.35l12.36,16.24V3.23h5.73v26.37h-4.93l-12.77-16.76v16.76h-5.73V3.23z"/>
		<path class="st0" d="M246.32,3.04h5.35l11.3,26.56h-6.07l-2.41-5.91h-11.15l-2.41,5.91h-5.91L246.32,3.04z M252.42,18.56
			l-3.5-8.55l-3.5,8.55H252.42z"/>
		<path class="st0" d="M70.22,45.39l0.72-0.83c1.64,1.51,3.15,2.21,5.34,2.21c2.24,0,3.77-1.26,3.77-2.96v-0.04
			c0-1.58-0.83-2.49-4.22-3.17c-3.58-0.72-5.02-1.94-5.02-4.19v-0.04c0-2.21,2.02-3.92,4.79-3.92c2.17,0,3.6,0.6,5.11,1.81
			l-0.7,0.87c-1.4-1.21-2.81-1.68-4.45-1.68c-2.19,0-3.64,1.26-3.64,2.81v0.04c0,1.58,0.81,2.53,4.34,3.26
			c3.45,0.7,4.9,1.94,4.9,4.11v0.04c0,2.41-2.06,4.07-4.94,4.07C73.84,47.77,72.01,46.99,70.22,45.39z"/>
		<path class="st0" d="M87.79,33.68h-5.19v-1.02h11.5v1.02h-5.19v13.88h-1.11V33.68z"/>
		<path class="st0" d="M100.37,32.55h1.06l6.94,15.01h-1.21l-1.89-4.17h-8.79l-1.89,4.17h-1.15L100.37,32.55z M104.8,42.39
			l-3.92-8.62l-3.94,8.62H104.8z"/>
		<path class="st0" d="M112.91,33.68h-5.19v-1.02h11.5v1.02h-5.19v13.88h-1.11V33.68z"/>
		<path class="st0" d="M121.74,32.66h10.6v1.02h-9.49v5.85h8.54v1.02h-8.54v5.98h9.6v1.02h-10.71V32.66z"/>
		<path class="st0" d="M140.5,41.37v-8.71h1.11v8.6c0,3.51,1.89,5.54,5.05,5.54c3.02,0,4.96-1.83,4.96-5.43v-8.71h1.11v8.58
			c0,4.28-2.49,6.56-6.11,6.56C143.03,47.8,140.5,45.54,140.5,41.37z"/>
		<path class="st0" d="M156.08,32.66h1.04l10.28,12.96V32.66h1.06v14.9h-0.83l-10.49-13.24v13.24h-1.06V32.66z"/>
		<path class="st0" d="M172.22,32.66h1.11v14.9h-1.11V32.66z"/>
		<path class="st0" d="M175.79,32.66h1.23l5.83,13.71l5.85-13.71h1.17l-6.56,15.01h-0.98L175.79,32.66z"/>
		<path class="st0" d="M192.21,32.66h10.6v1.02h-9.49v5.85h8.54v1.02h-8.54v5.98h9.6v1.02h-10.71V32.66z"/>
		<path class="st0" d="M205.64,32.66h6.26c1.83,0,3.3,0.58,4.19,1.47c0.7,0.7,1.13,1.7,1.13,2.77v0.04c0,2.49-1.85,3.92-4.36,4.26
			l4.92,6.37h-1.4l-4.75-6.17h-4.88v6.17h-1.11V32.66z M211.77,40.39c2.49,0,4.34-1.26,4.34-3.41v-0.04c0-2-1.57-3.26-4.28-3.26
			h-5.09v6.71H211.77z"/>
		<path class="st0" d="M219.24,45.39l0.72-0.83c1.64,1.51,3.15,2.21,5.34,2.21c2.24,0,3.77-1.26,3.77-2.96v-0.04
			c0-1.58-0.83-2.49-4.22-3.17c-3.58-0.72-5.02-1.94-5.02-4.19v-0.04c0-2.21,2.02-3.92,4.79-3.92c2.17,0,3.6,0.6,5.11,1.81
			l-0.7,0.87c-1.41-1.21-2.81-1.68-4.45-1.68c-2.19,0-3.64,1.26-3.64,2.81v0.04c0,1.58,0.81,2.53,4.34,3.26
			c3.45,0.7,4.9,1.94,4.9,4.11v0.04c0,2.41-2.06,4.07-4.94,4.07C222.86,47.77,221.03,46.99,219.24,45.39z"/>
		<path class="st0" d="M233.14,32.66h1.11v14.9h-1.11V32.66z"/>
		<path class="st0" d="M242.13,33.68h-5.19v-1.02h11.5v1.02h-5.19v13.88h-1.11V33.68z"/>
		<path class="st0" d="M255.81,41.67l-6.39-9.01h1.38l5.58,8l5.6-8h1.32l-6.39,8.98v5.92h-1.11V41.67z"/>
		<path class="st0" d="M70.34,50.75h14.13c3.48,0,6.22,0.96,7.96,2.7c1.39,1.39,2.09,3.09,2.09,5.17v0.09c0,3.43-1.83,5.35-4,6.56
			c3.52,1.35,5.69,3.39,5.69,7.48v0.09c0,5.56-4.52,8.35-11.39,8.35H70.34V50.75z M87.86,59.75c0-2-1.57-3.13-4.39-3.13h-6.61v6.43
			h6.17c2.96,0,4.83-0.96,4.83-3.22V59.75z M84.6,68.62h-7.74v6.69h7.95c2.96,0,4.74-1.04,4.74-3.3v-0.09
			C89.55,69.88,88.03,68.62,84.6,68.62z"/>
		<path class="st0" d="M100.29,50.75h6.69v30.43h-6.69V50.75z"/>
		<path class="st0" d="M112.85,50.75h6.69v24.34h15.17v6.09h-21.87V50.75z"/>
		<path class="st0" d="M138.02,50.75h6.69v24.34h15.17v6.09h-21.87V50.75z"/>
		<path class="st0" d="M163.49,50.75h6.69v30.43h-6.69V50.75z"/>
		<path class="st0" d="M176.06,50.75h6.17l14.26,18.74V50.75h6.61v30.43h-5.69l-14.74-19.34v19.34h-6.61V50.75z"/>
		<path class="st0" d="M207.31,66.05v-0.09c0-8.65,6.74-15.74,15.95-15.74c5.48,0,8.78,1.48,11.95,4.17L231,59.49
			c-2.35-1.96-4.43-3.09-7.95-3.09c-4.87,0-8.74,4.3-8.74,9.48v0.09c0,5.56,3.83,9.65,9.22,9.65c2.43,0,4.61-0.61,6.3-1.83v-4.35
			h-6.74v-5.78h13.21v13.21c-3.13,2.65-7.43,4.83-13,4.83C213.83,81.7,207.31,75.05,207.31,66.05z"/>
		<path class="st0" d="M238.91,76.74l3.96-4.74c2.74,2.26,5.61,3.69,9.09,3.69c2.74,0,4.39-1.09,4.39-2.87v-0.09
			c0-1.7-1.04-2.56-6.13-3.87c-6.13-1.56-10.09-3.26-10.09-9.3v-0.09c0-5.52,4.43-9.17,10.65-9.17c4.43,0,8.22,1.39,11.3,3.87
			l-3.48,5.04c-2.69-1.87-5.35-3-7.91-3c-2.56,0-3.91,1.17-3.91,2.65v0.09c0,2,1.3,2.65,6.56,4c6.17,1.61,9.65,3.83,9.65,9.13v0.09
			c0,6.04-4.61,9.43-11.17,9.43C247.22,81.61,242.57,80,238.91,76.74z"/>
	</g>
	<g>
		<g>
			<path class="st1" d="M12.46,26.84l-2.22-0.87l0.31,0.67l0.86,0.34c0.07,0.02,0.46,0.19,0.91,0.49
				C12.36,27.26,12.41,27.05,12.46,26.84z"/>
			<path class="st1" d="M8.82,57.03l0.27-3.56v-0.03c0-0.03-0.05-0.66,0.64-1.5c1.13-1.35,3.99-3.09,11.16-3.76l0.01-0.01l1.27-1.14
				l0.05,0.02c-0.05-0.12-0.1-0.25-0.15-0.37c-0.83,0.89-1.43,1.37-1.47,1.4l-0.23,0.13l-0.28,0.05
				c-7.41,0.64-10.33,2.44-11.46,3.81c-0.69,0.84-0.66,1.47-0.66,1.48l0.02,0.05l-0.12,1.62L8.82,57.03z"/>
			<path class="st1" d="M54.75,5.08c0,0.15,0.07,4.02-3.19,8.74c-0.13,0.24-0.27,0.47-0.42,0.69c0.49-0.24,0.97-0.46,1.45-0.67
				c0.03-0.05,0.05-0.09,0.07-0.14c3.27-4.72,3.19-8.57,3.19-8.74l-0.03-1.16l-0.49,0.1l-0.6,0.11L54.75,5.08z"/>
			<path class="st1" d="M7.43,23.69c1.88,0.09,3.07-1.16,3.49-1.94l1.1-2.13c0,0-0.96,0.31-1.24,0.4L9.8,21.87
				C9.48,22.49,8.67,23.38,7.43,23.69z"/>
			<path class="st1" d="M22.84,25.82c0,0-0.44,0.54-0.96,1.28c1.38,0.29,2.46,0.73,3.07,1c0.12,0.05,0.35,0.15,0.4,0.17v-0.02
				l0.05,0.02l0.61,0.22c0,0,0.1,0.32,0.12,0.4c0.12-0.25,0.24-0.5,0.36-0.74h-0.03c-0.07-0.02-0.29-0.12-0.42-0.17
				c-0.61-0.25-1.69-0.71-3.07-0.98c0.54-0.76,0.96-1.3,0.96-1.3l0.02-0.02l1.96-2.67l-1.16,0.29c0,0-0.03,0.01-0.07,0.02
				l-1.84,2.48V25.82z"/>
			<path class="st1" d="M9.6,20.16c0.11-0.05,1.11-0.36,1.29-0.41c1.2-1.78,3.09-2.96,5.61-3.54c0.36-0.08,0.71-0.14,1.05-0.19
				c-0.66,0.05-1.39,0.14-2.15,0.31C12.72,16.94,10.78,18.22,9.6,20.16z"/>
			<path class="st1" d="M44.44,47.4c-0.34,0.46-1.2,1.05-2.51,1.77c0.4,0.07,2.18,0.32,2.18,0.32l-2.68,1.42
				c-0.81,0.42-2.13,0.81-3.98,1.15c-0.03,1.91-0.39,3.59-1.05,4.86c0.86,0.49,1.59,1.11,2.16,1.89c0.74,1.03,1.18,2.23,1.3,3.56
				c0.35,3.81-1.99,8.15-5.96,11.07c-2.14,1.57-4.6,2.6-7,2.94c0.24-0.01,0.48-0.03,0.72-0.05c2.51-0.27,5.13-1.33,7.39-2.99
				c3.97-2.92,6.31-7.26,5.96-11.07c-0.12-1.33-0.56-2.53-1.3-3.56c-0.57-0.76-1.3-1.4-2.18-1.89c0.65-1.22,1.01-3,1.05-4.83
				c1.38-0.29,3.66-0.81,4.39-1.2l2.4-1.27c0,0-1.6-0.24-2.18-0.32c1.47-0.78,2.41-1.42,2.77-1.89l1.45-1.92l-1.71,0.39L44.44,47.4z
				"/>
			<path class="st1" d="M32.19,13.4L30,15.39c-0.05,0.05-4.61,4.22-7.26,8.34c0.52-0.2,0.89-0.3,0.91-0.3l0.39-0.1
				c2.65-4.02,7.01-8.01,7.06-8.06l2.19-1.99l1.37-1.21l-1.82,0.51l-0.94,0.36L32.19,13.4z"/>
			<path class="st1" d="M68.39,10.11c-0.11,0-1.09-0.01-2.72,0.18c0.97-0.08,1.54-0.07,1.62-0.06l1.47,0.03l-0.59,1.33
				c-0.07,0.17-1.77,4.08-5.77,8.99c-3.68,4.52-10.06,10.75-19.64,14.82l-0.44,0.2v-0.03c-2.73,1.2-5.6,2.18-8.54,2.92
				c-0.07,0.1-0.46,0.84-0.64,1.18c0.52,0.54,0.96,1.16,1.28,1.86c3.14,0.88,5.5,3.51,6.33,4.52c0.49,0.04,0.98,0.02,1.41-0.02
				c-0.71-0.88-2.7-3.09-5.35-4.15c-0.41-0.19-0.85-0.35-1.3-0.47c-0.32-0.69-0.74-1.3-1.28-1.84c0.19-0.34,0.59-1.1,0.64-1.2
				c2.94-0.74,5.82-1.69,8.56-2.89l0.42-0.2c9.58-4.07,15.98-10.29,19.64-14.82c4-4.91,5.7-8.83,5.77-8.98l0.59-1.35L68.39,10.11z"
				/>
			<path class="st1" d="M20.16,75c-0.15,0.05-0.42,0.12-0.47,0.13c-0.1,0.05-6.14,3.31-6.14,3.31l-3.04,1.45L8.2,81.02l-0.24,0.16
				l3.64-1.38l3.05-1.45c0,0,4.55-2.45,5.81-3.13C20.36,75.14,20.26,75.07,20.16,75z"/>
			<path class="st1" d="M21.96,13.92l2.67,0.39l-1,0.62l-1.28,0.81c-0.02,0-1.55,1-3.02,3.04c-0.03,0.07-0.08,0.14-0.12,0.2
				c0.62-0.46,1.32-0.93,2.09-1.4c1.15-1.31,2.13-1.94,2.14-1.96l1.28-0.81l1-0.62l-2.67-0.37c-2.85-0.4-5.37-0.46-7.57-0.17
				C17.42,13.5,19.58,13.59,21.96,13.92z"/>
		</g>
		<path class="st2" d="M67.29,10.22c-0.3-0.02-7.12-0.1-16.15,4.29c0.15-0.22,0.29-0.46,0.42-0.69c3.26-4.72,3.19-8.59,3.19-8.74
			l-0.03-1.16l-0.51,0.1l-0.64,0.12c-0.19,0.03-4.67,0.93-10.44,4.69c-4.94,3.22-11.83,9.3-16.99,20.06
			c-0.02-0.08-0.12-0.4-0.12-0.4l-0.61-0.22l-0.05-0.02v0.02c-0.05-0.02-0.29-0.12-0.4-0.17c-0.61-0.27-1.69-0.71-3.07-1
			c0.52-0.74,0.96-1.28,0.96-1.28V25.8l1.97-2.67l-1.16,0.29c-0.02,0-0.39,0.1-0.91,0.3c2.65-4.12,7.21-8.29,7.26-8.34l2.19-1.99
			l2.45-1.59l-2.9,0.86l-2.78,1.08h-0.02c-4.22,1.81-7.48,3.56-9.72,5.23c0.03-0.07,0.08-0.13,0.12-0.2c1.47-2.04,3-3.04,3.02-3.04
			l1.28-0.81l1-0.62l-2.67-0.39c-6.43-0.89-11.24-0.03-14.28,2.58c-3.05,2.62-3.14,6.01-3.14,6.16v0.74l0.71,0.2
			c2.48,0.74,4.07-0.81,4.54-1.74l1.11-2.13c0,0-1.2,0.37-1.32,0.42c1.18-1.94,3.12-3.22,5.8-3.83c1-0.22,1.96-0.32,2.75-0.34
			c-1.75,2.02-4.69,6.09-5.84,11.47c-0.46-0.3-0.84-0.47-0.91-0.49l-2.26-0.89l1.01,2.23c0,0,0.2,0.49,0.29,1.37
			c0.03,0.4,0.03,0.84,0,1.3c-0.59,0.57-1.15,1.16-1.67,1.81c-4.15,5.05-4.64,10.56-4.34,14.31l0.02,0.19
			c0.35,3.93,1.6,6.68,1.65,6.8h0.02l1.6,3.07l0.27-3.56l-0.02-0.05c0-0.02-0.03-0.64,0.66-1.48c1.13-1.37,4.05-3.16,11.46-3.81
			l0.28-0.05l0.23-0.13c0.03-0.03,0.64-0.51,1.47-1.4c0.05,0.12,0.1,0.25,0.15,0.37l-0.05-0.02l-1.69,1.52c0,0,0.07,0.47,0.1,0.66
			c-0.35,0.35-0.62,0.67-0.81,0.98c-0.24-0.3-0.51-0.46-0.76-0.51c-0.37-0.08-0.73-0.08-1-0.07c-0.19-0.1-1.06-0.62-1.06-0.62
			l-0.46,0.2c-0.1,0.05-2.29,1.03-3.43,3.49l-0.1,0.2l0.02,0.24c0,0.2,0.13,2.09,3.21,2.97l0.24,0.07c0,0,0.49-0.12,0.78-0.19
			c0.25,0.51,2.75,5.35,2.97,5.77c-2.11,2.58-3.17,5.53-2.94,8.17c0.05,0.54,0.17,1.08,0.32,1.59c-0.07,0.19-0.27,0.66-0.32,0.79
			c-0.13,0.12-4.83,4.57-4.83,4.57l-2.4,2.33l-2.14,1.99l2.63-1.28l3.04-1.45c0,0,6.04-3.26,6.14-3.31
			c0.05-0.02,0.32-0.08,0.47-0.13c1.65,1.18,3.9,1.67,6.34,1.42c2.51-0.27,5.13-1.33,7.39-2.99c3.97-2.92,6.31-7.26,5.96-11.07
			c-0.12-1.33-0.56-2.53-1.3-3.56c-0.57-0.78-1.3-1.4-2.16-1.89c0.66-1.27,1.01-2.95,1.05-4.86c1.86-0.34,3.17-0.73,3.98-1.15
			l2.68-1.42c0,0-1.77-0.25-2.18-0.32c1.32-0.73,2.18-1.32,2.51-1.77l1.62-2.16l-2.63,0.61c-0.02,0-1.38,0.3-2.68,0.2
			c-0.83-1.01-3.19-3.64-6.33-4.52c-0.32-0.69-0.76-1.32-1.28-1.86c0.19-0.34,0.57-1.08,0.64-1.18c2.94-0.74,5.8-1.72,8.54-2.92
			v0.03l0.44-0.2c9.58-4.07,15.96-10.29,19.64-14.82c4-4.91,5.7-8.83,5.77-8.99l0.59-1.33L67.29,10.22z M67.88,11.4
			c-0.08,0.17-1.75,4.03-5.72,8.89c-3.64,4.47-9.99,10.66-19.49,14.7h-0.02v0.02l-0.02-0.03c-2.89,1.3-5.92,2.35-9.06,3.12
			c-0.15,0.29-0.69,1.3-0.86,1.64c0.64,0.59,1.15,1.32,1.48,2.13c3.31,0.84,5.79,3.78,6.41,4.57c1.43,0.15,3-0.19,3.02-0.19
			l1.47-0.34l-0.91,1.21c-0.49,0.64-2.19,1.59-3.54,2.26c0.17,0.02,2.18,0.32,2.18,0.32l-1.5,0.79c-0.83,0.44-2.23,0.83-4.22,1.18
			c0.03,2.16-0.39,4.07-1.2,5.38c0.98,0.47,1.79,1.13,2.4,1.97c0.73,0.98,1.11,2.13,1.23,3.34c0.32,3.54-1.84,7.78-5.79,10.68
			c-4.56,3.34-10.12,3.91-13.41,1.47c-0.25,0.07-0.62,0.15-0.71,0.17c-0.12,0.07-6.16,3.34-6.16,3.34l-3.04,1.43l2.38-2.31
			c0,0,4.74-4.49,4.89-4.66c0.07-0.15,0.32-0.74,0.42-1c-0.19-0.52-0.3-1.08-0.35-1.65c-0.24-2.62,0.89-5.57,3.02-8.08
			c-0.24-0.44-2.9-5.65-3.24-6.31c-0.39,0.08-1,0.22-1,0.22l-0.13-0.03c-2.77-0.79-2.9-2.38-2.9-2.56v-0.13l0.05-0.12
			c1.06-2.31,3.12-3.22,3.21-3.27l0.25-0.1c0,0,0.78,0.44,1,0.57c0.24-0.03,0.61-0.05,1,0.05c0.62,0.15,0.84,0.91,0.89,1.62
			c0.02,0.24,0.03,0.46,0.03,0.64v0.1c0,0-0.2,0.56-0.32,0.91c0.39,0.35,2.02,1.89,2.5,2.33c0.35-0.25,0.96-0.69,1.6-1.3
			c-0.39,0.25-1.01,0.64-1.01,0.64l-1.06-0.19l-0.13-0.17c-0.15-0.2-1.37-1.89-1.5-3.24c-0.02-0.15,0-0.29,0-0.42
			c0.05-0.59,0.69-1.27,1.13-1.67c-0.03-0.17-0.1-0.64-0.1-0.64l1.35-1.23l0.27,0.05c0.17,0.03,0.34,0.08,0.49,0.15
			c-0.37-0.56-0.64-1.2-0.79-1.87c-1.05,1.23-1.87,1.87-1.91,1.91l-0.14,0.1l-0.17,0.02c-7.56,0.66-10.55,2.5-11.74,3.95
			c-0.83,1-0.74,1.77-0.74,1.81L7.5,55.6l-0.91-1.72c-0.05-0.12-1.28-2.8-1.62-6.67c0-0.05-0.02-0.12-0.02-0.19
			c-0.3-3.66,0.2-9.06,4.25-13.99c0.56-0.69,1.15-1.32,1.75-1.89c0.05-0.59,0.05-1.1,0-1.52c-0.08-0.98-0.32-1.52-0.32-1.52
			l-0.57-1.25l1.28,0.49c0.05,0.03,0.74,0.3,1.33,0.89c1.15-6.33,4.83-10.88,6.55-12.72c-0.94-0.02-2.35,0.03-3.83,0.37
			c-3.22,0.73-5.42,2.4-6.58,4.98l0.03-0.02l1.3-0.4l-0.62,1.2c-0.44,0.81-1.84,2.19-4.05,1.54l-0.4-0.12l0.02-0.42
			c0-0.13,0.07-3.34,2.97-5.84c2.95-2.53,7.64-3.36,13.94-2.46l1.5,0.2l-1.28,0.81c-0.02,0.02-1.6,1.03-3.14,3.16
			c-0.46,0.64-0.93,1.43-1.38,2.38c1.74-1.75,5.11-4.02,11.51-6.77l2.78-1.06l-2.19,1.99c-0.07,0.05-5.72,5.25-8.12,9.8
			c0.08-0.07,0.1-0.08,0.15-0.12c1.01-0.67,2.02-0.93,2.02-0.93l-1.25,1.72c-0.02,0-0.66,0.83-1.37,1.87
			c1.64,0.22,2.9,0.76,3.64,1.06c0.19,0.08,0.4,0.17,0.47,0.19c0.12,0.05,0.4,0.14,0.4,0.14l0.08,0.29c0.1,0.37,0.19,0.74,0.25,1.11
			c5.15-11.36,12.25-17.7,17.36-21.02c5.69-3.71,10.11-4.59,10.29-4.62l0.64-0.12l0.02,0.64c0,0.17,0.07,3.9-3.12,8.5
			c-0.39,0.71-0.83,1.38-1.32,2.06c9.62-5.08,17.06-4.99,17.4-4.99l0.83,0.02L67.88,11.4z"/>
		<g>
			<path class="st3" d="M23.21,58.85l-0.02,0.02C23.2,58.86,23.21,58.86,23.21,58.85C23.22,58.85,23.22,58.85,23.21,58.85z"/>
			<path class="st3" d="M13.24,38.14c-0.68,0.8-1.38,1.77-2.02,2.96c2.11,0.66,4.76-0.13,6.63-2.19c1.81-1.97,2.38-4.57,1.67-6.58
				l-0.34,0.1c1.3,4.32-2.45,6.33-2.45,6.33c1.89-2.23,0.51-3.8,0.51-3.8s-1.27,0.5-2.86,1.98c0.9,0.93-0.84,2.93-0.84,2.93
				S13.94,38.3,13.24,38.14z"/>
			<path class="st3" d="M20.13,24.23c-0.21,0.07-0.37,0.06-0.49,0.03c-0.17,0.23-0.34,0.45-0.51,0.68
				C19.79,24.69,20.13,24.23,20.13,24.23z"/>
			<path class="st3" d="M19.63,24.26c-0.28-0.08-0.34-0.33-0.34-0.33c-0.94-2.8,8.59-8.3,8.59-8.3S23.19,19.62,19.63,24.26z
				 M19.91,23.03L19.91,23.03c0.89-1.1,1.82-2.14,2.73-3.1C20.83,21.43,20.14,22.42,19.91,23.03L19.91,23.03z"/>
		</g>
		<g>
			<path class="st3" d="M34.84,52.35c-0.15,0.47-0.46,0.94-1,1.39c0,0,0.87-0.49,1.39-1.44C35.11,52.32,34.97,52.34,34.84,52.35z"/>
		</g>
		<path class="st3" d="M32.72,48.24c0.86-0.16,1.59-0.33,2.2-0.51c1.36-2.07-4.21-4.49-4.21-4.49
			C34.8,45.34,34.17,47.08,32.72,48.24z"/>
		<g>
			<path class="st0" d="M67.37,10.63c-0.34,0-7.78-0.08-17.4,4.99c0.49-0.67,0.93-1.35,1.32-2.06c3.19-4.61,3.12-8.34,3.12-8.5
				L54.4,4.42l-0.64,0.12c-0.19,0.03-4.61,0.91-10.29,4.62c-5.11,3.32-12.22,9.67-17.36,21.02c-0.07-0.37-0.15-0.74-0.25-1.11
				l-0.08-0.29c0,0-0.29-0.08-0.4-0.14c-0.07-0.02-0.29-0.1-0.47-0.19c-0.74-0.3-2.01-0.84-3.64-1.06c0.71-1.05,1.35-1.87,1.37-1.87
				l1.25-1.72c0,0-1.01,0.25-2.02,0.93c-0.05,0.03-0.07,0.05-0.15,0.12c2.4-4.56,8.05-9.75,8.12-9.8l2.19-1.99l-2.78,1.06
				c-6.4,2.75-9.77,5.01-11.51,6.77c0.46-0.94,0.93-1.74,1.38-2.38c1.54-2.13,3.12-3.14,3.14-3.16l1.28-0.81l-1.5-0.2
				c-6.29-0.89-10.98-0.07-13.94,2.46c-2.9,2.5-2.97,5.7-2.97,5.84l-0.02,0.42l0.4,0.12c2.21,0.66,3.61-0.73,4.05-1.54l0.62-1.2
				l-1.3,0.4l-0.03,0.02c1.16-2.58,3.36-4.25,6.58-4.98c1.48-0.34,2.89-0.39,3.83-0.37c-1.72,1.84-5.4,6.4-6.55,12.72
				c-0.59-0.59-1.28-0.86-1.33-0.89l-1.28-0.49l0.57,1.25c0,0,0.24,0.54,0.32,1.52c0.05,0.42,0.05,0.93,0,1.52
				c-0.61,0.57-1.2,1.2-1.75,1.89c-4.05,4.93-4.56,10.33-4.25,13.99c0,0.07,0.02,0.13,0.02,0.19c0.34,3.86,1.57,6.55,1.62,6.67
				L7.5,55.6l0.15-2.02c0-0.03-0.08-0.81,0.74-1.81c1.2-1.45,4.18-3.29,11.74-3.95l0.17-0.02l0.14-0.1
				c0.03-0.03,0.86-0.67,1.91-1.91c0.11,0.49,0.29,0.97,0.52,1.41c0.38,0.1,0.71,0.31,1,0.56c-0.62-0.82-1.03-1.82-1.13-2.92
				c-0.01-0.13-0.02-0.26-0.02-0.4c-1.35,1.87-2.61,2.83-2.61,2.83c-0.35,0.03-0.69,0.06-1.02,0.1c0.3-0.3,2.59-3.85,1.65-3.69
				c-2.48,0.29-5.91,4.35-5.91,4.35l-0.01,0.02c-8.24,1.85-7.72,5.6-7.72,5.6S2.02,42.66,9.63,33.39c0,0,0,0,0-0.01
				c0-0.01,0-0.01,0-0.01s0.26-0.56,1.86-2.03c0.23-2.24-0.36-3.49-0.36-3.49s1.86,0.73,1.84,2.31c0.83-9.13,7.51-15.14,7.51-15.14
				s-9.67-1.28-12.42,6.21c0,0,0.03,0.42,0.96,0.13c0,0-1.03,1.96-3.39,1.25c0,0,0.12-10.04,16.28-7.76c0,0-6.57,4.11-6.32,13.81
				c0.51-0.21,1-0.38,1.48-0.5c0.56-1.07,1.27-2.16,2.05-3.23c-0.57,0.21-1.38,0.26-2.43-0.3c0,0-2.43-3.51,12.72-10.01
				c0,0-7.76,7.06-9.14,12.16c0,0,0,0,0,0c1.14-1.05,1.89-1.63,1.89-1.63s-1.01,1.26-1.9,2.7c2.79,0.16,4.72,1.38,5.03,1.35
				c1.09,4.17,0.75,7.66-0.14,10.42c0.79-0.55,1.74-0.91,2.77-1c0.34-0.03,0.67-0.03,0.99,0c-0.57-1.19-2.49-5.32-2.68-7.42
				C36.14,8.47,53.86,5.06,53.86,5.06s0.1,3.71-3.09,8.29c0,0,1.6-3.41,1.06-5.62c0,0-13.5-1.15-23.54,24.87l1.07,6.07
				c0.78,0.12,1.52,0.41,2.16,0.82c-0.08-1.85-0.27-7.48,0.21-7.44c16.44-21.29,35.62-20.89,35.62-20.89s-6.72,15.59-24.94,23.32
				c0,0,14.83-6.63,21.75-21.11c0,0-13.72-3.49-30.96,20.01l-1.15,6.48c0.5,0.41,0.93,0.9,1.27,1.45c0.23,0.03,0.46,0.07,0.68,0.12
				c-0.33-0.64-0.76-1.22-1.29-1.71c0.17-0.34,0.71-1.35,0.86-1.64c3.14-0.78,6.18-1.82,9.06-3.12l0.02,0.03v-0.02h0.02
				c9.5-4.03,15.84-10.23,19.49-14.7c3.97-4.86,5.64-8.72,5.72-8.89l0.32-0.76L67.37,10.63z M17.98,25.63
				c-0.49,0.71-0.91,1.4-1.27,2.06c-0.19,0.05-0.37,0.1-0.57,0.17c0.02-0.98,0.12-1.89,0.25-2.75c0.02,0.02,0.05,0.02,0.05,0.02
				C17.02,25.44,17.53,25.6,17.98,25.63z M26.54,34.45c0.47,1.3,1.06,2.63,1.5,3.59c-0.05,0.02-0.1,0-0.15,0.02
				c-0.64,0.05-1.27,0.22-1.84,0.46C26.37,37.21,26.54,35.84,26.54,34.45z M29.88,38.2c0-0.29,0-2.41,0-2.8
				c0.13-0.15,0.49-0.47,1-0.94c-0.02,1.33,0.02,2.95,0.07,4.1C30.59,38.4,30.23,38.29,29.88,38.2z M35.08,37.12l-0.54,0.15
				c0,0,0,0,0,0l-1.92,0.54c13.82-20.38,28.11-22.9,28.11-22.9s-0.03,0.01-0.08,0.02c-1.33,0.4-4.67,1.62-9.01,4.61
				c4.36-1.77,6.92-1.55,6.92-1.55c-4.11,0.34-7.27,1.97-8.75,2.88c-0.92,0.7-1.87,1.48-2.85,2.34c4.8-1.86,7.59-1.62,7.59-1.62
				c-4.09,0.36-6.87,1.51-8.54,2.48c-1.49,1.37-3.03,2.94-4.61,4.73c6.18-2.49,9.79-2.18,9.79-2.18c-5.16,0.46-8.6,1.94-10.63,3.15
				C38.74,31.91,36.9,34.35,35.08,37.12z"/>
			<path class="st0" d="M38.3,59.04c-0.61-0.84-1.42-1.5-2.4-1.97c0.77-1.25,1.19-3.04,1.2-5.07c-0.18,0.03-0.36,0.06-0.54,0.1
				c-0.03,2.21-0.56,4.07-1.5,5.2c1.13,0.43,2.1,1.13,2.8,2.09c2.62,3.58,0.62,9.52-4.45,13.23c-4.52,3.32-9.96,3.78-12.96,1.31
				l-1.03,0.26l-6.23,3.39l4.98-4.74l0.55-1.3c-1.39-3.6,0.69-8.6,5.17-11.89c2.25-1.65,4.74-2.6,7.03-2.82
				c-1.34-0.82-2.78-1.93-3.9-3.65c-0.03,0-0.06,0-0.09,0.01c-1.63,2.77-4.64,5.25-4.64,5.25c-0.37,0.62,0.25,2.04,0.25,2.04
				l-2.08-2.08l-0.03,1.5l-2.6-5.05l-1.27,0.27c-2.46-0.69-2.5-2.04-2.5-2.04c0.98-2.14,2.92-2.99,2.92-2.99l0.93,0.54
				c0,0,0.46-0.12,0.98,0c0.51,0.12,0.49,1.72,0.49,1.72l-0.4,1.16l3.07,2.89c0,0,1.48-0.87,2.82-2.38l-2.1,1.34l-0.16-0.03
				c-0.19,0.15-0.36,0.27-0.5,0.36c-0.13-0.12-0.33-0.31-0.58-0.54l-0.09-0.02l-0.15-0.22c-0.64-0.6-1.42-1.33-1.67-1.56
				c0.1-0.3,0.26-0.74,0.31-0.87c-0.13-0.35-0.22-0.71-0.25-1.05v-0.47c0.01-0.07,0.02-0.13,0.04-0.2
				c-0.14-0.33-0.36-0.59-0.69-0.68c-0.39-0.1-0.76-0.08-1-0.05c-0.22-0.13-1-0.57-1-0.57l-0.25,0.1c-0.08,0.05-2.14,0.96-3.21,3.27
				l-0.05,0.12v0.13c0,0.19,0.13,1.77,2.9,2.56l0.13,0.03c0,0,0.61-0.13,1-0.22c0.34,0.66,3,5.87,3.24,6.31
				c-2.13,2.51-3.26,5.47-3.02,8.08c0.05,0.57,0.17,1.13,0.35,1.65c-0.1,0.25-0.35,0.84-0.42,1c-0.15,0.17-4.89,4.66-4.89,4.66
				l-2.38,2.31l3.04-1.43c0,0,6.04-3.27,6.16-3.34c0.08-0.02,0.46-0.1,0.71-0.17c3.29,2.45,8.86,1.87,13.41-1.47
				c3.95-2.9,6.11-7.14,5.79-10.68C39.41,61.17,39.02,60.02,38.3,59.04z M22.74,58.75c0.52-0.44,2.72-2.38,4.25-4.66
				c0.67,0.88,1.47,1.67,2.46,2.4c-2.04,0.44-4.08,1.37-5.89,2.7c-0.24,0.17-0.47,0.35-0.71,0.54c-0.07-0.25-0.12-0.49-0.13-0.67
				C22.71,58.92,22.72,58.82,22.74,58.75z"/>
			<path class="st0" d="M36.27,46.13c-0.05,0.03-0.03-0.07-0.44-0.71c-0.19-0.13-0.43-0.28-0.7-0.44c0.29,0.69,0.54,1.41,0.75,2.18
				c0.02,0.08,0.04,0.16,0.06,0.24c0.42-0.15,0.76-0.3,1.02-0.43C36.78,46.76,36.63,46.45,36.27,46.13z"/>
			<path class="st0" d="M22.39,47.46l-1.35,1.23c0.01,0.08,0.07,0.48,0.1,0.64c-0.44,0.4-1.08,1.08-1.13,1.67c0,0.13,0,0.26,0,0.4
				c0.13,1.35,1.35,3.02,1.5,3.22l0.13,0.19l1.05,0.17l2.65-1.67c0,0,0.02-0.35,0.02-0.39c0.11-0.01,0.24-0.01,0.38-0.02l0,0
				c0.06,0,0.12-0.01,0.19-0.01c0.01,0,0.02,0,0.03,0c0.05,0,0.11-0.01,0.17-0.01c0.02,0,0.03,0,0.05,0c0.05,0,0.11-0.01,0.17-0.01
				c0.02,0,0.03,0,0.05,0c0.15-0.01,0.31-0.02,0.48-0.03c0,0,0.01,0,0.02,0c0.08-0.01,0.16-0.01,0.24-0.02c0.01,0,0.02,0,0.03,0
				c0.08-0.01,0.17-0.01,0.25-0.02c0.01,0,0.01,0,0.02,0c0.19-0.01,0.39-0.03,0.59-0.05c0,0,0.01,0,0.01,0
				c0.1-0.01,0.2-0.02,0.3-0.02c0.01,0,0.01,0,0.02,0c0.43-0.04,0.88-0.07,1.35-0.12c0,0,0,0,0,0c2.14-0.2,4.66-0.48,6.87-0.85l0,0
				c2.01-0.34,3.76-0.76,4.74-1.28l1.47-0.77c-0.31-0.05-1.97-0.3-2.13-0.31c0,0,0.01,0,0.01-0.01c-0.03,0-0.05-0.01-0.06-0.01
				c1.35-0.67,3.09-1.62,3.58-2.28l0.89-1.17l-1.43,0.33c-0.02,0-1.59,0.34-3.02,0.19c0-0.01-0.01-0.01-0.01-0.02c0,0,0,0,0,0
				c-0.11-0.14-0.27-0.34-0.48-0.57c-1.03-1.17-3.19-3.29-5.92-3.98c0-0.01-0.01-0.02-0.01-0.03c-0.21-0.05-0.43-0.1-0.65-0.13v0
				c-0.08-0.01-0.16-0.02-0.24-0.03c-0.02,0-0.04,0-0.06-0.01c-0.06-0.01-0.12-0.01-0.18-0.02c-0.03,0-0.05,0-0.08-0.01
				c-0.06,0-0.11-0.01-0.17-0.01c-0.02,0-0.05,0-0.07,0c-0.08,0-0.16-0.01-0.24-0.01c0,0,0,0,0,0c-0.08,0-0.16,0-0.24,0
				c-0.02,0-0.05,0-0.07,0c-0.06,0-0.11,0.01-0.17,0.01c-0.03,0-0.06,0-0.08,0.01c-0.06,0-0.11,0.01-0.17,0.02
				c-0.03,0-0.05,0.01-0.08,0.01c-0.08,0.01-0.16,0.02-0.25,0.03l-1.81,0.29l1.65,0.76c0.12,0.05,0.23,0.1,0.34,0.16
				c0.04,0.02,0.07,0.03,0.11,0.05c0.08,0.04,0.15,0.07,0.23,0.11c0.04,0.02,0.08,0.04,0.12,0.06c0.07,0.04,0.14,0.07,0.22,0.11
				c0.03,0.02,0.07,0.03,0.1,0.05c0.09,0.05,0.19,0.09,0.28,0.14c0.03,0.01,0.05,0.03,0.08,0.04c0.08,0.04,0.15,0.08,0.22,0.12
				c0.04,0.02,0.08,0.04,0.12,0.06c0.05,0.03,0.11,0.06,0.16,0.09c0.04,0.02,0.09,0.05,0.13,0.07c0.05,0.03,0.09,0.05,0.14,0.08
				c0.04,0.02,0.09,0.05,0.13,0.07c0.04,0.02,0.09,0.05,0.13,0.07c0.08,0.05,0.17,0.1,0.25,0.15c0.03,0.02,0.06,0.04,0.09,0.05
				c0.05,0.03,0.1,0.06,0.15,0.09c0.03,0.02,0.05,0.03,0.08,0.05c0.05,0.03,0.1,0.06,0.15,0.09c0.02,0.01,0.04,0.02,0.06,0.04
				c0.18,0.12,0.35,0.23,0.51,0.35c0,0,0,0,0,0l0,0c1.39,0.98,2.09,1.8,2.4,2.26c-0.31,0.17-0.83,0.42-1.6,0.69
				c-0.01,0-0.01,0-0.02,0.01c-0.11,0.04-0.22,0.07-0.33,0.11c-0.01,0-0.02,0.01-0.03,0.01c-0.05,0.02-0.11,0.03-0.16,0.05
				c-0.03,0.01-0.05,0.02-0.08,0.02c-0.1,0.03-0.2,0.06-0.3,0.09c-0.03,0.01-0.05,0.02-0.08,0.02c-0.05,0.01-0.1,0.03-0.15,0.04
				c-0.04,0.01-0.09,0.02-0.13,0.03c-0.05,0.01-0.1,0.03-0.15,0.04c-0.07,0.02-0.14,0.04-0.21,0.05c-0.06,0.01-0.12,0.03-0.19,0.04
				c-0.06,0.01-0.12,0.03-0.19,0.04c-0.05,0.01-0.1,0.02-0.15,0.03c-0.08,0.02-0.16,0.03-0.23,0.05c-0.05,0.01-0.1,0.02-0.15,0.03
				c-0.09,0.02-0.19,0.04-0.29,0.06c-0.05,0.01-0.1,0.02-0.15,0.03c-0.09,0.02-0.17,0.03-0.26,0.05c-0.04,0.01-0.08,0.02-0.13,0.02
				c-0.12,0.02-0.25,0.04-0.38,0.06c-0.04,0.01-0.09,0.01-0.14,0.02c-0.1,0.02-0.2,0.03-0.3,0.05c-0.05,0.01-0.09,0.01-0.14,0.02
				c-0.14,0.02-0.28,0.04-0.43,0.06c-0.04,0-0.08,0.01-0.11,0.01c-0.12,0.02-0.24,0.03-0.36,0.04c-0.05,0.01-0.1,0.01-0.15,0.02
				c-0.15,0.02-0.29,0.03-0.45,0.05c-0.02,0-0.05,0-0.07,0.01c-0.15,0.02-0.31,0.03-0.47,0.05c-0.05,0-0.11,0.01-0.16,0.01
				c-0.14,0.01-0.28,0.02-0.42,0.03c-0.04,0-0.08,0.01-0.12,0.01c-0.18,0.01-0.36,0.03-0.54,0.04c-0.05,0-0.11,0.01-0.16,0.01
				c-0.14,0.01-0.29,0.02-0.44,0.02c-0.06,0-0.11,0.01-0.17,0.01c-0.19,0.01-0.39,0.02-0.59,0.03c-0.05,0-0.1,0-0.15,0.01
				c-0.16,0.01-0.33,0.01-0.49,0.02c-0.06,0-0.13,0-0.2,0.01c-0.21,0.01-0.42,0.01-0.64,0.01l0,0c-0.25,0-0.51,0.01-0.78,0.01
				c-0.27-0.44-0.81-1.23-1.54-1.57c-0.14-0.06-0.29-0.1-0.44-0.13L22.39,47.46z M24.31,49.78c11,0.02,13.89-2.51,13.89-2.51
				s-0.98-2.46-6.67-5.03c4.81-0.76,8.79,4.72,8.79,4.72c1.6,0.22,3.43-0.19,3.43-0.19c-0.73,0.94-4.99,2.89-4.99,2.89L41.05,50
				c-3.29,1.72-16.2,2.43-16.2,2.43l-0.03,0.59l-2.23,1.42l-0.64-0.12c0,0-1.54-2.04-1.38-3.27c0.03-0.56,1.16-1.48,1.16-1.48
				l-0.1-0.67l0.93-0.83C23.53,48.21,24.31,49.78,24.31,49.78z"/>
			<path class="st0" d="M25,48.88c-0.15-0.11-0.29-0.23-0.42-0.35c0.09,0.12,0.17,0.24,0.24,0.35C24.88,48.88,24.94,48.88,25,48.88z
				"/>
		</g>
		<g>
			<path class="st2" d="M32.61,37.81l1.92-0.54c12.79-19.41,26.19-22.36,26.19-22.36S46.43,17.43,32.61,37.81z"/>
			<path class="st2" d="M31.53,42.23c5.69,2.56,6.67,5.03,6.67,5.03s-2.89,2.53-13.89,2.51c0,0-0.78-1.57-1.75-1.72l-0.93,0.83
				l0.1,0.67c0,0-1.13,0.93-1.16,1.48c-0.15,1.23,1.38,3.27,1.38,3.27l0.64,0.12l2.23-1.42l0.03-0.59c0,0,12.91-0.71,16.2-2.43
				l-2.29-0.34c0,0,4.27-1.94,4.99-2.89c0,0-1.82,0.4-3.43,0.19C40.32,46.96,36.34,41.47,31.53,42.23z M33.26,51.49
				c-0.02,0-0.04,0.01-0.07,0.01c-0.06,0.01-0.12,0.02-0.18,0.03c-6.09,0.86-8.05,0.51-8.67,0.2l0.05,0.94l-1.16,0.89l-0.34-0.08
				l-0.22-0.64v-0.02c0,0-0.52-1.45-0.19-1.79c0.34-0.32,0.74-0.25,0.74-0.25l0.13-0.13v-0.62L23.75,50
				c2.13,2.31,7.88,1.72,9.26,1.54c0.07-0.01,0.13-0.02,0.18-0.03C33.22,51.5,33.24,51.49,33.26,51.49c0.01,0,0.03,0,0.04-0.01
				C33.3,51.48,33.29,51.49,33.26,51.49z"/>
			<path class="st2" d="M23.57,59.19c1.81-1.33,3.85-2.26,5.89-2.7c-1-0.73-1.79-1.52-2.46-2.4c-1.54,2.28-3.73,4.22-4.25,4.66
				c-0.02,0.07-0.03,0.17-0.02,0.3c0.02,0.19,0.07,0.42,0.13,0.67C23.1,59.55,23.33,59.36,23.57,59.19z M23.21,58.85
				C23.22,58.85,23.22,58.85,23.21,58.85c0.73-0.66,2.39-2.2,3.71-4.03c0.44,0.52,0.93,1.03,1.47,1.48
				C26.59,56.81,24.81,57.69,23.21,58.85c0,0-0.01,0.01-0.02,0.02L23.21,58.85z"/>
			<path class="st2" d="M26.54,34.45c0,1.38-0.17,2.75-0.49,4.07c0.57-0.24,1.2-0.4,1.84-0.46c0.05-0.02,0.1,0,0.15-0.02
				C27.6,37.09,27.01,35.75,26.54,34.45z M26.52,37.9c0.1-0.49,0.17-0.98,0.24-1.47c0.19,0.47,0.37,0.89,0.56,1.28
				C27.04,37.75,26.79,37.81,26.52,37.9z"/>
			<path class="st2" d="M29.88,35.4c0,0.39,0,2.51,0,2.8c0.35,0.08,0.71,0.2,1.06,0.35c-0.05-1.15-0.08-2.77-0.07-4.1
				C30.37,34.93,30.01,35.25,29.88,35.4z M30.2,37.9c0-0.47,0-2.01,0-2.29c0.05-0.05,0.08-0.07,0.13-0.13
				c0.02,0.86,0.03,1.74,0.05,2.48C30.33,37.93,30.27,37.91,30.2,37.9z"/>
			<path class="st2" d="M16.72,27.69c0.35-0.66,0.78-1.35,1.27-2.06c-0.46-0.03-0.96-0.19-1.54-0.51c0,0-0.03,0-0.05-0.02
				c-0.13,0.86-0.24,1.77-0.25,2.75C16.35,27.79,16.53,27.74,16.72,27.69z M16.65,25.76c0.19,0.08,0.35,0.14,0.52,0.19
				c-0.22,0.35-0.44,0.71-0.64,1.06C16.57,26.59,16.6,26.19,16.65,25.76z"/>
			<path class="st2" d="M10.15,44.68c1.27,1.18,4.84-0.61,8-3.98c0.2-0.22,0.42-0.46,0.61-0.67c2.46-3.8,2.13-6.73,1.82-7.93
				c-1.67-0.03-4.47,1.64-6.99,4.34C10.42,39.82,8.89,43.5,10.15,44.68z M14.38,36.94c1.59-1.48,2.86-1.98,2.86-1.98
				s1.38,1.57-0.51,3.8c0,0,3.75-2.01,2.45-6.33l0.34-0.1c0.71,2.01,0.13,4.61-1.67,6.58c-1.87,2.06-4.52,2.85-6.63,2.19
				c0.65-1.19,1.34-2.17,2.02-2.96c0.7,0.16,0.3,1.73,0.3,1.73S15.29,37.87,14.38,36.94z"/>
			<path class="st2" d="M21,59.68c-0.02,0.05-0.02,0.22-0.02,0.22s-0.02,1.06-0.03,1.67c0.3-0.34,0.61-0.66,0.94-0.98
				C21.69,60.39,21.44,60.14,21,59.68z"/>
		</g>
		<path class="st2" d="M42.42,34.49c18.22-7.73,24.94-23.32,24.94-23.32s-19.19-0.4-35.62,20.89c-0.48-0.04-0.29,5.59-0.21,7.44
			c-0.65-0.41-1.38-0.7-2.16-0.82l-1.07-6.07C38.33,6.58,51.83,7.73,51.83,7.73c0.54,2.21-1.06,5.62-1.06,5.62
			c3.19-4.57,3.09-8.29,3.09-8.29S36.14,8.47,26.25,31.2c0.19,2.1,2.11,6.24,2.68,7.42c-0.32-0.03-0.65-0.03-0.99,0
			c-1.03,0.09-1.98,0.45-2.77,1c0.89-2.76,1.23-6.24,0.14-10.42c-0.31,0.02-2.25-1.19-5.03-1.35c-0.82,1.33-1.53,2.81-1.21,3.56
			c-0.05,0.03-0.09,0.06-0.14,0.09c2.64-1.64,4.99-2.15,6.1-1.09c0.49,0.46,0.69,1.16,0.64,2.02c0.38,4.07-1.71,7.9-3.2,10.11
			c0-0.06-0.02-0.11-0.04-0.15c-0.05-0.08-0.15-0.19-0.39-0.14c-2.95,0.34-6.86,3.89-7.98,4.96c-1.66,0.16-3.2-0.07-4.07-1.02
			c-0.77-0.72-0.82-2.06-0.3-3.71c-0.14,0.37-0.21,0.57-0.21,0.57c1.62-6.37,6.28-11.86,9.49-15.03c0.48-0.47,0.92-0.89,1.32-1.26
			c1.38-5.1,9.14-12.16,9.14-12.16C14.27,21.12,16.7,24.63,16.7,24.63c1.04,0.56,1.85,0.52,2.43,0.3c0.17-0.23,0.34-0.45,0.51-0.68
			c-0.28-0.08-0.34-0.33-0.34-0.33c-0.94-2.8,8.59-8.3,8.59-8.3s-4.7,4-8.25,8.64c0.12,0.03,0.28,0.04,0.49-0.03
			c0,0-0.34,0.46-1,0.71c-0.78,1.06-1.48,2.15-2.05,3.23c-0.48,0.12-0.98,0.29-1.48,0.5c-0.25-9.7,6.32-13.81,6.32-13.81
			C5.75,12.59,5.63,22.63,5.63,22.63c2.36,0.71,3.39-1.25,3.39-1.25c-0.93,0.29-0.96-0.13-0.96-0.13
			c2.75-7.49,12.42-6.21,12.42-6.21s-6.68,6.01-7.51,15.14l0,0c0,0,0,0,0,0c-0.01,0.05-2.14,7.81-7.2,12
			c0.56-0.61,1.07-1.21,1.53-1.79L6.88,40.8c3.65-5.01,2.82-7.25,2.76-7.41c0,0,0,0,0,0.01C2.02,42.66,7.1,53.64,7.1,53.64
			s-0.52-3.74,7.72-5.6l0.01-0.02c0,0,3.43-4.07,5.91-4.35c0.94-0.16-1.35,3.39-1.65,3.69c0.33-0.04,0.67-0.07,1.02-0.1
			c0,0,1.26-0.96,2.61-2.83c0,0.13,0.01,0.26,0.02,0.4c0.1,1.1,0.51,2.1,1.13,2.92c-0.34-0.29-0.73-0.52-1.18-0.59l-0.4-0.07
			l-1.6,1.45c0,0,0.07,0.47,0.1,0.66c-0.69,0.66-1.06,1.25-1.11,1.75v0.47c0.13,1.43,1.33,3.09,1.57,3.41l0.2,0.29l1.33,0.22
			l2.1-1.34c-1.34,1.51-2.82,2.38-2.82,2.38l-3.07-2.89l0.4-1.16c0,0,0.02-1.6-0.49-1.72c-0.52-0.12-0.98,0-0.98,0l-0.93-0.54
			c0,0-1.94,0.84-2.92,2.99c0,0,0.03,1.35,2.5,2.04l1.27-0.27l2.6,5.05l0.03-1.5l2.08,2.08c0,0-0.62-1.42-0.25-2.04
			c0,0,3-2.48,4.64-5.25c0.03,0,0.06,0,0.09-0.01c1.12,1.72,2.56,2.84,3.9,3.65c-2.3,0.22-4.78,1.17-7.03,2.82
			c-4.48,3.29-6.56,8.29-5.17,11.89l-0.55,1.3l-4.98,4.74l6.23-3.39l1.03-0.26c3,2.46,8.44,2.01,12.96-1.31
			c5.08-3.71,7.07-9.65,4.45-13.23c-0.7-0.96-1.67-1.65-2.8-2.09c0.94-1.13,1.47-2.99,1.5-5.2c2.07-0.35,3.88-0.79,4.9-1.32
			l2.4-1.27c0,0-1.6-0.24-2.18-0.32c1.48-0.79,2.41-1.42,2.77-1.89l1.45-1.92l-2.35,0.52c-0.02,0.02-1.45,0.3-2.78,0.2
			c-0.79-1-3.69-4.31-7.44-4.77c-0.34-0.56-0.77-1.05-1.27-1.45l1.15-6.48C50.45,9.89,64.17,13.38,64.17,13.38
			C57.25,27.86,42.42,34.49,42.42,34.49z M14.86,53.51l-0.35-0.27c0,0,1.32-2.21,2.53-2.62l0.39,0.17
			C17.43,50.79,16.53,52.85,14.86,53.51z M25,48.88c-0.06,0-0.12,0-0.18,0c-0.07-0.11-0.15-0.23-0.24-0.35
			C24.71,48.65,24.85,48.77,25,48.88z M31.8,56.8c0,0-2.18-1.52-2.46-2.94l0.73,0.2c0,0,0.64,2.16,2.45,2.75
			c0,0-7.44,2.45-9.33,8.76c-1.69-0.62-3.48,2.24-3.48,2.24C22.02,58.72,31.8,56.8,31.8,56.8z M20.5,72.29l-5.15,3.59l3.29-2.95
			l0.65-1.4c-0.06-0.01-0.13-0.02-0.2-0.03l-0.13-0.44c1.77,0.42,1.99,2.16,1.99,2.16S20.84,72.74,20.5,72.29z M24.97,74.68
			l-0.01,0.02c-0.81,0.01-1.29-0.07-1.29-0.07c0.84-4.24-2.68-5.69-2.68-5.69s1.07-0.31,2.62-0.89c3.56,0.95,4.08,4.57,4.08,4.57
			L24.97,74.68z M31.37,73.06c-0.48,0.25-0.95,0.47-1.41,0.65c-0.5-5.03-3.22-6.33-4.02-6.6c0.73-0.32,1.5-0.68,2.26-1.08
			c3.09,0.99,4.51,4.46,4.51,4.46L31.37,73.06z M35.82,69.36c-0.3,0.39-0.63,0.78-0.99,1.19C34,66.64,30.65,65.23,30.01,65
			c0.57-0.35,1.12-0.72,1.63-1.12c2.14-0.26,4.37,2.57,4.37,2.57L35.82,69.36z M37.63,66.38c-2.01-3.34-4.18-3.58-4.71-3.58
			c0.38-0.36,0.71-0.74,1.01-1.13c2.08-0.06,3.39,1.34,3.39,1.34l0.73,2.21C37.94,65.59,37.8,65.98,37.63,66.38z M35.08,58.04
			c-0.05-0.15,3.13,1.49,3.25,5.04c-1.74-2.64-3.41-2.51-3.75-2.44C34.98,59.83,35.18,58.96,35.08,58.04z M34.74,56.88
			c-1.58-2.41-0.69-4.03-0.39-4.46c0.29-0.04,0.58-0.08,0.87-0.12c0,0,0,0,0,0c0.29-0.04,0.57-0.09,0.85-0.13
			C36.07,55.31,34.74,56.88,34.74,56.88z M32.51,41.61C32.51,41.61,32.51,41.61,32.51,41.61c0.08,0,0.16,0,0.24,0.01
			c0.02,0,0.05,0,0.07,0c0.06,0,0.11,0.01,0.17,0.01c0.03,0,0.05,0,0.08,0.01c0.06,0.01,0.12,0.01,0.18,0.02
			c0.02,0,0.04,0,0.06,0.01c0.08,0.01,0.16,0.02,0.24,0.03v0c3.61,0.57,6.39,3.86,7.06,4.72c1.43,0.15,3-0.19,3.02-0.19l1.45-0.32
			l-0.89,1.18c-0.49,0.66-2.23,1.6-3.58,2.28c0.19,0.03,2.19,0.32,2.19,0.32l-1.48,0.78c-0.98,0.51-2.73,0.93-4.74,1.28
			c-2.21,0.38-4.74,0.66-6.87,0.85c0,0,0,0,0,0c-0.47,0.04-0.92,0.08-1.35,0.12c-0.01,0-0.01,0-0.02,0c-0.1,0.01-0.2,0.02-0.3,0.02
			c0,0-0.01,0-0.01,0c-0.2,0.02-0.4,0.03-0.59,0.05c-0.01,0-0.01,0-0.02,0c-0.09,0.01-0.17,0.01-0.25,0.02c-0.01,0-0.02,0-0.03,0
			c-0.08,0.01-0.16,0.01-0.24,0.02c0,0-0.01,0-0.02,0c-0.17,0.01-0.33,0.02-0.48,0.03c-0.02,0-0.03,0-0.05,0
			c-0.06,0-0.11,0.01-0.17,0.01c-0.02,0-0.03,0-0.05,0c-0.06,0-0.11,0.01-0.17,0.01c-0.01,0-0.02,0-0.03,0
			c-0.07,0-0.13,0.01-0.19,0.01c-0.14,0.01-0.27,0.02-0.38,0.02c0,0.03-0.02,0.39-0.02,0.39l-2.65,1.67l-1.05-0.17l-0.13-0.19
			c-0.15-0.2-1.37-1.87-1.5-3.22c0-0.15,0-0.28,0-0.4c0-0.01,0-0.01,0-0.02c0.05-0.59,0.69-1.27,1.13-1.65
			c-0.03-0.19-0.1-0.66-0.1-0.66l1.35-1.21l0.25,0.03c0.96,0.17,1.67,1.2,1.99,1.72c0.26,0,0.52,0,0.78-0.01
			c0.22,0,0.43-0.01,0.64-0.01c0.07,0,0.13,0,0.2-0.01c0.17,0,0.33-0.01,0.49-0.02c0.05,0,0.1,0,0.15-0.01
			c0.2-0.01,0.39-0.02,0.59-0.03c0.06,0,0.11-0.01,0.17-0.01c0.15-0.01,0.29-0.02,0.44-0.02c0.05,0,0.11-0.01,0.16-0.01
			c0.18-0.01,0.36-0.02,0.54-0.04c0.04,0,0.08-0.01,0.12-0.01c0.14-0.01,0.28-0.02,0.42-0.03c0.05,0,0.11-0.01,0.16-0.01
			c0.16-0.01,0.32-0.03,0.47-0.05c0.02,0,0.05,0,0.07-0.01c0.15-0.02,0.3-0.03,0.45-0.05c0.05-0.01,0.1-0.01,0.15-0.02
			c0.12-0.01,0.24-0.03,0.36-0.04c0.04,0,0.08-0.01,0.11-0.01c0.15-0.02,0.29-0.04,0.43-0.06c0.05-0.01,0.09-0.01,0.14-0.02
			c0.1-0.02,0.2-0.03,0.3-0.05c0.05-0.01,0.09-0.01,0.14-0.02c0.13-0.02,0.26-0.04,0.38-0.06c0.04-0.01,0.08-0.02,0.13-0.02
			c0.09-0.02,0.18-0.03,0.26-0.05c0.05-0.01,0.1-0.02,0.15-0.03c0.1-0.02,0.19-0.04,0.29-0.06c0.05-0.01,0.1-0.02,0.15-0.03
			c0.08-0.02,0.16-0.03,0.23-0.05c0.05-0.01,0.1-0.02,0.15-0.03c0.06-0.01,0.13-0.03,0.19-0.04c0.06-0.01,0.13-0.03,0.19-0.04
			c0.07-0.02,0.14-0.04,0.21-0.05c0.05-0.01,0.1-0.03,0.15-0.04c0.04-0.01,0.09-0.02,0.13-0.03c0.05-0.01,0.1-0.03,0.15-0.04
			c0.03-0.01,0.05-0.02,0.08-0.02c0.1-0.03,0.2-0.06,0.3-0.09c0.03-0.01,0.05-0.02,0.08-0.02c0.05-0.02,0.11-0.03,0.16-0.05
			c0.01,0,0.02-0.01,0.03-0.01c0.12-0.04,0.23-0.07,0.33-0.11c0.01,0,0.01,0,0.02-0.01c0.26-0.09,0.49-0.18,0.69-0.26
			c0,0.01,0,0.01,0.01,0.02c0.4-0.17,0.69-0.32,0.91-0.44c0,0-0.01-0.01-0.01-0.01c0,0,0.01,0,0.01,0c-0.31-0.46-1.01-1.28-2.4-2.26
			c0,0,0,0,0,0c-0.16-0.11-0.33-0.23-0.51-0.35c-0.02-0.01-0.04-0.02-0.06-0.04c-0.05-0.03-0.1-0.06-0.15-0.09
			c-0.03-0.02-0.05-0.03-0.08-0.05c-0.05-0.03-0.1-0.06-0.15-0.09c-0.03-0.02-0.06-0.04-0.09-0.05c-0.08-0.05-0.16-0.1-0.25-0.15
			c-0.04-0.02-0.08-0.05-0.13-0.07c-0.04-0.02-0.09-0.05-0.13-0.07c-0.05-0.03-0.09-0.05-0.14-0.08c-0.04-0.02-0.08-0.05-0.13-0.07
			c-0.05-0.03-0.1-0.06-0.16-0.09c-0.04-0.02-0.08-0.04-0.12-0.06c-0.07-0.04-0.15-0.08-0.22-0.12c-0.03-0.01-0.05-0.03-0.08-0.04
			c-0.09-0.05-0.19-0.09-0.28-0.14c-0.03-0.02-0.07-0.03-0.1-0.05c-0.07-0.04-0.14-0.07-0.22-0.11c-0.04-0.02-0.08-0.04-0.12-0.06
			c-0.07-0.04-0.15-0.07-0.23-0.11c-0.04-0.02-0.07-0.03-0.11-0.05c-0.11-0.05-0.23-0.1-0.34-0.16l-1.65-0.76l1.81-0.29
			c0.08-0.01,0.16-0.02,0.25-0.03c0.03,0,0.05-0.01,0.08-0.01c0.06-0.01,0.11-0.01,0.17-0.02c0.03,0,0.06,0,0.08-0.01
			c0.06,0,0.12-0.01,0.17-0.01c0.02,0,0.05,0,0.07,0C32.35,41.61,32.43,41.61,32.51,41.61z M35.12,46.91L35.12,46.91
			c0.07,0.24,0.13,0.48,0.19,0.71l0,0c-0.06,0.02-0.12,0.04-0.19,0.06c0,0,0,0-0.01,0c-0.07,0.02-0.13,0.04-0.2,0.06c0,0,0,0,0,0
			c-0.29,0.08-0.6,0.17-0.94,0.25C33.95,47.99,33.92,48,33.89,48c-0.06,0.01-0.13,0.03-0.19,0.04c-0.04,0.01-0.08,0.02-0.13,0.03
			c-0.06,0.01-0.12,0.03-0.18,0.04c-0.05,0.01-0.1,0.02-0.15,0.03c-0.06,0.01-0.12,0.02-0.18,0.04c-0.06,0.01-0.12,0.02-0.18,0.03
			c-0.05,0.01-0.11,0.02-0.16,0.03c0.34-0.28,0.63-0.62,0.63-0.62c-1.65-0.83-2.4-2.27-2.4-2.27l0,0c-0.03-0.05-0.04-0.13-0.08-0.18
			c-0.31-0.69-0.35-1.4-0.16-1.94c0,0,0,0,0,0c0.04-0.12,0.1-0.23,0.16-0.33l0.29,0.13c0.11,0.05,0.23,0.1,0.35,0.15
			c0.03,0.01,0.07,0.03,0.1,0.04c0.09,0.04,0.18,0.08,0.27,0.12c0.03,0.02,0.07,0.03,0.1,0.05c0.1,0.04,0.19,0.09,0.29,0.13
			c0.03,0.01,0.05,0.02,0.08,0.04c0.12,0.05,0.24,0.11,0.35,0.17c0,0,0.01,0,0.01,0.01c0.53,0.25,1.05,0.51,1.54,0.76
			c0.3,0.6,0.54,1.27,0.74,1.93c0,0,0,0,0,0C35.06,46.59,35.1,46.75,35.12,46.91z M35.13,44.99c0.27,0.16,0.52,0.31,0.7,0.44
			c0.07,0.1,0.12,0.19,0.16,0.27c0.15,0.43,0.29,0.87,0.41,1.32c0.02,0.06,0.04,0.13,0.06,0.19c-0.16,0.07-0.33,0.13-0.52,0.2
			c-0.02-0.08-0.04-0.16-0.06-0.24C35.67,46.4,35.42,45.67,35.13,44.99z M32.27,41.14c-0.71,0.37-1.59,0.56-2.55,0.54
			c-1.74-0.07-3.19-0.88-3.73-1.96c0.69-0.27,1.52-0.42,2.4-0.39C30.15,39.38,31.63,40.12,32.27,41.14z"/>
		<g>
			<path class="st4" d="M34.84,52.35c0.12-0.02,0.23-0.03,0.34-0.05c-0.28,0.04-0.56,0.08-0.84,0.12c-0.14,0.2-0.4,0.65-0.49,1.31
				C34.38,53.29,34.69,52.82,34.84,52.35z"/>
			<path class="st4" d="M35.23,52.3c0,0,0.01,0,0.01,0c-0.49,0.89-1.27,1.37-1.38,1.44c-0.1,0.78,0.03,1.85,0.88,3.15
				c0,0,1.33-1.57,1.33-4.71C35.79,52.22,35.51,52.26,35.23,52.3z"/>
		</g>
		<g>
			<path class="st4" d="M34.92,47.74c0.14-0.04,0.27-0.08,0.39-0.12c-0.06-0.23-0.12-0.47-0.19-0.71
				C35.15,47.19,35.1,47.47,34.92,47.74z"/>
			<path class="st4" d="M34.98,46.43c-0.2-0.66-0.45-1.33-0.74-1.93c-0.96-0.5-2.11-1.03-3.08-1.46l-0.29-0.13
				c-0.07,0.1-0.12,0.21-0.16,0.33C30.86,43.31,34.23,44.8,34.98,46.43z"/>
			<path class="st4" d="M30.71,43.25c-0.19,0.54-0.15,1.25,0.16,1.94c0.03,0.05,0.04,0.13,0.08,0.18l0,0c0,0,0.75,1.43,2.4,2.27
				C34.25,46.5,34.13,45,30.71,43.25z"/>
		</g>
		<path class="st4" d="M14.51,53.24c0,0,1.32-2.21,2.53-2.62l0.39,0.17c0,0-0.89,2.06-2.56,2.72L14.51,53.24L14.51,53.24z"/>
		<path class="st3" d="M19.7,67.81c2.31-9.1,12.1-11.02,12.1-11.02s-2.18-1.52-2.46-2.94l0.73,0.2c0,0,0.64,2.16,2.45,2.75
			c0,0-7.44,2.45-9.33,8.76C21.49,64.95,19.7,67.81,19.7,67.81L19.7,67.81z"/>
		<g>
			<path class="st4" d="M19.29,71.52l-0.65,1.4l-3.29,2.95l5.15-3.59C20.24,71.96,19.86,71.64,19.29,71.52z"/>
		</g>
		<g>
			<path class="st4" d="M34.57,60.65c0.35-0.06,2.02-0.19,3.75,2.44c-0.12-3.56-3.3-5.2-3.25-5.04
				C35.18,58.96,34.98,59.83,34.57,60.65z"/>
			<path class="st4" d="M37.63,66.38c0.18-0.4,0.31-0.79,0.42-1.17l-0.73-2.21c0,0-1.32-1.4-3.39-1.34
				c-0.29,0.39-0.63,0.77-1.01,1.13C33.45,62.8,35.62,63.04,37.63,66.38z"/>
			<path class="st4" d="M32.71,70.48c0,0-1.42-3.47-4.51-4.46c-0.76,0.4-1.53,0.76-2.26,1.08c0.8,0.27,3.52,1.57,4.02,6.6
				c0.46-0.18,0.93-0.4,1.41-0.65L32.71,70.48z"/>
			<path class="st4" d="M24.97,74.68l2.72-2.06c0,0-0.51-3.62-4.08-4.57c-1.55,0.58-2.62,0.89-2.62,0.89s3.53,1.45,2.68,5.69
				c0,0,0.48,0.08,1.29,0.07L24.97,74.68z"/>
			<path class="st4" d="M36.02,66.45c0,0-2.23-2.83-4.37-2.57c-0.52,0.39-1.07,0.77-1.63,1.12c0.63,0.23,3.99,1.64,4.82,5.55
				c0.36-0.41,0.69-0.8,0.99-1.19L36.02,66.45z"/>
		</g>
		<path class="st4" d="M23.75,50l-0.39,0.03v0.62l-0.13,0.13c0,0-0.4-0.07-0.74,0.25c-0.34,0.34,0.19,1.79,0.19,1.79v0.02l0.22,0.64
			l0.34,0.08l1.16-0.89l-0.05-0.94c0.62,0.3,2.58,0.66,8.67-0.2C31.63,51.72,25.88,52.31,23.75,50L23.75,50z M33.02,51.53
			c0.2-0.03,0.3-0.05,0.3-0.05C33.22,51.5,33.12,51.51,33.02,51.53L33.02,51.53z"/>
		<path class="st3" d="M18.96,71.05c1.77,0.42,1.99,2.16,1.99,2.16s-0.37-1.57-1.86-1.72L18.96,71.05L18.96,71.05z"/>
		<path class="st4" d="M14.06,47.23c-1.66,0.16-3.2-0.07-4.07-1.02c-1.75-1.65,0.2-6.55,4.35-10.9c4.15-4.37,8.94-6.55,10.68-4.89
			c0.49,0.46,0.69,1.16,0.64,2.02c0.38,4.07-1.71,7.9-3.2,10.11c0-0.06-0.02-0.11-0.04-0.15c-0.05-0.08-0.15-0.19-0.39-0.14
			C19.08,42.6,15.18,46.16,14.06,47.23z M18.76,40.02c2.46-3.8,2.13-6.73,1.82-7.93c-1.67-0.03-4.47,1.64-6.99,4.34
			c-3.17,3.39-4.71,7.07-3.44,8.25c1.27,1.18,4.84-0.61,8-3.98C18.35,40.48,18.57,40.24,18.76,40.02L18.76,40.02z"/>
		<path class="st5" d="M9.48,43.08c2.55-10.04,12.69-17.92,12.69-17.92s-3.76,4.69-3.1,6.26C11.52,36.36,9.48,43.08,9.48,43.08
			L9.48,43.08z"/>
		<path class="st4" d="M6.88,40.8c3.8-5.21,2.75-7.42,2.75-7.42s0.29-0.62,2.14-2.28l-0.47,2.43l-1.03,2.65l-1.54,2.45l-1.03,1.33
			L6.88,40.8L6.88,40.8z"/>
		<path class="st5" d="M5.77,42.17c8-8.74,5.37-14.31,5.37-14.31s1.86,0.73,1.84,2.31C12.97,30.17,10.84,37.96,5.77,42.17
			L5.77,42.17z"/>
		<path class="st5" d="M19.91,23.03c0.24-0.61,0.93-1.6,2.73-3.1C21.73,20.89,20.8,21.93,19.91,23.03L19.91,23.03L19.91,23.03z"/>
		<g>
			<path class="st5" d="M61.26,14.76c0,0-0.45,0.08-1.25,0.32c0.35-0.09,0.57-0.14,0.67-0.16C61.06,14.81,61.26,14.76,61.26,14.76z"
				/>
			<path class="st5" d="M58.55,18c0,0-2.55-0.23-6.92,1.55c4.34-3,7.68-4.21,9.01-4.61c-1.14,0.29-13.9,3.82-26.1,22.34l0.54-0.15
				c1.82-2.77,3.66-5.21,5.47-7.35c2.02-1.21,5.46-2.69,10.63-3.15c0,0-3.61-0.31-9.79,2.18c1.57-1.79,3.11-3.35,4.61-4.73
				c1.68-0.97,4.45-2.12,8.54-2.48c0,0-2.79-0.24-7.59,1.62c0.98-0.86,1.93-1.64,2.85-2.34C51.27,19.97,54.44,18.34,58.55,18z"/>
		</g>
		<path class="st4" d="M28.39,39.33c-0.88-0.03-1.7,0.12-2.4,0.39c0.54,1.08,1.99,1.89,3.73,1.96c0.96,0.02,1.84-0.17,2.55-0.54
			C31.63,40.12,30.15,39.38,28.39,39.33L28.39,39.33z"/>
		<g>
			<path class="st6" d="M56.61,72.11l3.04-3.04V55.1l-3-3l3-3v-14.1l-3.09-3.09H38.75v6.66h1.65v26.84h-1.64v6.68L56.61,72.11z
				 M47.06,38.57h5.93v10.17h-5.93V38.57z M47.06,65.41V55.39h5.93v10.02H47.06z"/>
			<path d="M56.56,28.2H35.04v14.08c0,0,0.84,0,1.65,0c0,4.63,0,14.79,0,19.42c-0.81,0-1.64,0-1.64,0v14.1l23.09,0.02l5.21-5.21
				V53.56c0,0-1.38-1.38-1.46-1.46c0.08-0.08,1.46-1.46,1.46-1.46V33.47L58.1,28.2H56.56z M55.02,35.63c0.42,0.42,0.5,0.5,0.91,0.92
				c0,2.14,0,8.88,0,11.02c-0.88,0.88-4.54,4.54-4.54,4.54s3.65,3.65,4.54,4.53c0,2.13,0,8.76,0,10.9c-0.4,0.4-0.47,0.47-0.86,0.86
				c-1.73,0-6.36-0.01-10.96-0.01c0-0.95,0-31.8,0-32.76C48.71,35.63,53.3,35.63,55.02,35.63z"/>
			<polygon points="52.99,34.86 43.35,34.86 43.35,52.45 56.7,52.45 56.7,34.86 			"/>
			<polygon points="52.99,51.68 43.35,51.68 43.35,69.12 56.7,69.12 56.7,51.68 			"/>
		</g>
		<g>
			<path class="st7" d="M56.78,72.11l3.04-3.04V55.1l-3-3l3-3v-14.1l-3.09-3.09H38.92v6.66h1.65v26.84h-1.64v6.68L56.78,72.11z
				 M47.23,38.57h5.93v10.17h-5.93V38.57z M47.23,65.41V55.39h5.93v10.02H47.23z"/>
			<path class="st1" d="M56.73,29.69H36.7V40.8c0,0,1.02,0,1.65,0c0,3.41,0,18.98,0,22.39c-0.64,0-1.64,0-1.64,0v11.13l20.99,0.02
				l4.34-4.34V54.18c0,0-1.37-1.37-2.08-2.08c0.71-0.71,2.08-2.08,2.08-2.08V34.09l-4.39-4.4H56.73z M55.81,34.14
				c0.59,0.6,1.19,1.19,1.78,1.79c0,1.5,0,10.75,0,12.25c-0.8,0.8-3.92,3.92-3.92,3.92s3.12,3.12,3.92,3.92c0,1.5,0,10.63,0,12.13
				c-0.58,0.58-1.15,1.15-1.73,1.73c-1.44,0-11.49-0.01-14.7-0.01c0-0.99,0-1.24,0-2.23c0.64,0,1.64,0,1.64,0V36.35
				c0,0-1.02,0-1.65,0c0-0.98,0-1.22,0-2.2C44.35,34.14,54.37,34.14,55.81,34.14z"/>
			<path class="st1" d="M53.16,36.35H45v14.62h10.38V36.35H53.16z M50.94,40.8c0,1.95,0,3.76,0,5.71c-0.69,0-0.79,0-1.48,0
				c0-1.95,0-3.76,0-5.71C50.15,40.8,50.24,40.8,50.94,40.8z"/>
			<path class="st1" d="M53.16,53.17H45v14.47h10.38V53.17H53.16z M50.94,57.62c0,1.92,0,3.64,0,5.57c-0.69,0-0.79,0-1.48,0
				c0-1.92,0-3.64,0-5.57C50.15,57.62,50.24,57.62,50.94,57.62z"/>
		</g>
		<g>
			<path class="st8" d="M56.78,72.11l3.04-3.04V55.1l-3-3l3-3v-14.1l-3.09-3.09H38.92v6.66h1.65v26.84h-1.64v6.68L56.78,72.11z
				 M47.23,38.57h5.93v10.17h-5.93V38.57z M47.23,65.41V55.39h5.93v10.02H47.23z"/>
			<path class="st0" d="M56.73,31.17H38.18v8.14c0,0,1.2,0,1.65,0c0,1.36,0,23.99,0,25.36c-0.44,0-1.64,0-1.64,0v8.16l18.89,0.02
				l3.47-3.47V54.79c0,0-1.98-1.98-2.69-2.69c0.71-0.71,2.69-2.69,2.69-2.69V34.7l-3.52-3.53H56.73z M56.42,32.66
				c0.35,0.35,2.31,2.31,2.65,2.66c0,0.57,0,12.91,0,13.48c-0.37,0.37-3.31,3.31-3.31,3.31s2.93,2.93,3.31,3.3
				c0,0.57,0,12.78,0,13.36c-0.35,0.35-2.26,2.26-2.6,2.6c-0.57,0-15.46-0.01-16.79-0.01c0-1.03,0-4.17,0-5.2c0.44,0,1.64,0,1.64,0
				V37.83c0,0-1.2,0-1.65,0c0-1.02,0-4.15,0-5.17C41,32.66,55.85,32.66,56.42,32.66z"/>
			<path class="st0" d="M53.16,37.83h-6.67v11.65h7.42V37.83H53.16z M52.42,39.31c0,1.17,0,7.51,0,8.68c-0.97,0-3.47,0-4.45,0
				c0-1.18,0-7.51,0-8.68C48.95,39.31,51.45,39.31,52.42,39.31z"/>
			<path class="st0" d="M53.16,54.65h-6.67v11.5h7.42v-11.5H53.16z M52.42,56.14c0,1.17,0,7.37,0,8.54c-0.97,0-3.47,0-4.45,0
				c0-1.17,0-7.37,0-8.54C48.95,56.14,51.45,56.14,52.42,56.14z"/>
		</g>
		<path class="st9" d="M56.69,72.11l3.04-3.04V55.1l-3-3l3-3v-14.1l-3.09-3.09H38.84v6.66h1.65v26.84h-1.64v6.68L56.69,72.11z
			 M47.15,38.57h5.93v10.17h-5.93V38.57z M47.15,65.41V55.39h5.93v10.02H47.15z"/>
		<g>
			<defs>
				<path id="SVGID_1_" d="M36.17,38.03h34.37V3.1H3.28v46.35l4.86,8.93l0.13-2.41l0.55,1.06l0.27-3.56v-0.03
					c0-0.03-0.04-0.56,0.49-1.3l0.45-0.44l6.09-2.71l4.18-0.66l0.14-0.1c0.15-0.02,0.3-0.03,0.46-0.05l0.01-0.01l-0.42,0.38
					c0,0,0.07,0.47,0.1,0.66c-0.35,0.35-0.62,0.67-0.81,0.98l0.01,0.34c-0.06,0.15-0.1,0.29-0.11,0.43v0.47
					c0.13,1.43,1.33,3.09,1.57,3.41l0.2,0.29l1.33,0.22l2.89-1.84c0,0,0.02-0.24,0.02-0.25c2.34-0.15,7.73-0.56,11.75-1.32
					c0,0.08,0.01,0.16,0.01,0.26c0-0.05,0-0.1,0-0.14l1.1-0.07c1.38-0.29,3.66-0.81,4.39-1.2l2.4-1.27c0,0-1.6-0.24-2.18-0.32
					c1.47-0.78,2.41-1.42,2.77-1.89l1.45-1.92l-1.71,0.39l0.41-0.54l-2.63,0.61c-0.01,0-1.27,0.18-1.27,0.18
					c-0.71-0.88-2.7-3.09-5.35-4.15c-0.41-0.19-0.85-0.35-1.3-0.47c-0.17-0.37-0.37-0.72-0.61-1.04c0.55-1.05,0.67-1.87,0.7-2.19
					C35.79,38.13,35.98,38.08,36.17,38.03z M35.84,45.42c0.4,0.64,0.39,0.74,0.44,0.71c0.35,0.32,0.51,0.62,0.69,0.84
					c-1.38,0.67-4.83,1.87-12.15,1.91c-0.4-0.64-1.13-1.55-2.13-1.72l-0.4-0.07l-0.08-0.05l0.01,0c0,0,0-0.01,0-0.01
					c0.36,0.05,2.8,0.33,6.65-1.5c1.37-0.65,2.46-1.34,3.33-2.03C33.6,44.15,35.11,44.91,35.84,45.42z"/>
			</defs>
			<clipPath id="SVGID_00000104667373478261915240000007992201573762275516_">
				<use xlink:href="#SVGID_1_"  style="overflow:visible;"/>
			</clipPath>
			<g style="clip-path:url(#SVGID_00000104667373478261915240000007992201573762275516_);">
				<path class="st1" d="M12.46,26.84l-2.22-0.87l0.31,0.67l0.86,0.34c0.07,0.02,0.46,0.19,0.91,0.49
					C12.36,27.26,12.41,27.05,12.46,26.84z"/>
				<path class="st1" d="M8.82,57.03l0.27-3.56v-0.03c0-0.03-0.05-0.66,0.64-1.5c1.13-1.35,3.99-3.09,11.16-3.76l0.01-0.01
					l1.27-1.14l0.05,0.02c-0.05-0.12-0.1-0.25-0.15-0.37c-0.83,0.89-1.43,1.37-1.47,1.4l-0.23,0.13l-0.28,0.05
					c-7.41,0.64-10.33,2.44-11.46,3.81c-0.69,0.84-0.66,1.47-0.66,1.48l0.02,0.05l-0.12,1.62L8.82,57.03z"/>
				<path class="st1" d="M54.75,5.08c0,0.15,0.07,4.02-3.19,8.74c-0.13,0.24-0.27,0.47-0.42,0.69c0.49-0.24,0.97-0.46,1.45-0.67
					c0.03-0.05,0.05-0.09,0.07-0.14c3.27-4.72,3.19-8.57,3.19-8.74l-0.03-1.16l-0.49,0.1l-0.6,0.11L54.75,5.08z"/>
				<path class="st1" d="M7.43,23.69c1.88,0.09,3.07-1.16,3.49-1.94l1.1-2.13c0,0-0.96,0.31-1.24,0.4L9.8,21.87
					C9.48,22.49,8.67,23.38,7.43,23.69z"/>
				<path class="st1" d="M22.84,25.82c0,0-0.44,0.54-0.96,1.28c1.38,0.29,2.46,0.73,3.07,1c0.12,0.05,0.35,0.15,0.4,0.17v-0.02
					l0.05,0.02l0.61,0.22c0,0,0.1,0.32,0.12,0.4c0.12-0.25,0.24-0.5,0.36-0.74h-0.03c-0.07-0.02-0.29-0.12-0.42-0.17
					c-0.61-0.25-1.69-0.71-3.07-0.98c0.54-0.76,0.96-1.3,0.96-1.3l0.02-0.02l1.96-2.67l-1.16,0.29c0,0-0.03,0.01-0.07,0.02
					l-1.84,2.48V25.82z"/>
				<path class="st1" d="M9.6,20.16c0.11-0.05,1.11-0.36,1.29-0.41c1.2-1.78,3.09-2.96,5.61-3.54c0.36-0.08,0.71-0.14,1.05-0.19
					c-0.66,0.05-1.39,0.14-2.15,0.31C12.72,16.94,10.78,18.22,9.6,20.16z"/>
				<path class="st1" d="M44.44,47.4c-0.34,0.46-1.2,1.05-2.51,1.77c0.4,0.07,2.18,0.32,2.18,0.32l-2.68,1.42
					c-0.81,0.42-2.13,0.81-3.98,1.15c-0.03,1.91-0.39,3.59-1.05,4.86c0.86,0.49,1.59,1.11,2.16,1.89c0.74,1.03,1.18,2.23,1.3,3.56
					c0.35,3.81-1.99,8.15-5.96,11.07c-2.14,1.57-4.6,2.6-7,2.94c0.24-0.01,0.48-0.03,0.72-0.05c2.51-0.27,5.13-1.33,7.39-2.99
					c3.97-2.92,6.31-7.26,5.96-11.07c-0.12-1.33-0.56-2.53-1.3-3.56c-0.57-0.76-1.3-1.4-2.18-1.89c0.65-1.22,1.01-3,1.05-4.83
					c1.38-0.29,3.66-0.81,4.39-1.2l2.4-1.27c0,0-1.6-0.24-2.18-0.32c1.47-0.78,2.41-1.42,2.77-1.89l1.45-1.92l-1.71,0.39L44.44,47.4
					z"/>
				<path class="st1" d="M32.19,13.4L30,15.39c-0.05,0.05-4.61,4.22-7.26,8.34c0.52-0.2,0.89-0.3,0.91-0.3l0.39-0.1
					c2.65-4.02,7.01-8.01,7.06-8.06l2.19-1.99l1.37-1.21l-1.82,0.51l-0.94,0.36L32.19,13.4z"/>
				<path class="st1" d="M20.16,75c-0.15,0.05-0.42,0.12-0.47,0.13c-0.1,0.05-6.14,3.31-6.14,3.31l-3.04,1.45L8.2,81.02l-0.24,0.16
					l3.64-1.38l3.05-1.45c0,0,4.55-2.45,5.81-3.13C20.36,75.14,20.26,75.07,20.16,75z"/>
				<path class="st1" d="M21.96,13.92l2.67,0.39l-1,0.62l-1.28,0.81c-0.02,0-1.55,1-3.02,3.04c-0.03,0.07-0.08,0.14-0.12,0.2
					c0.62-0.46,1.32-0.93,2.09-1.4c1.15-1.31,2.13-1.94,2.14-1.96l1.28-0.81l1-0.62l-2.67-0.37c-2.85-0.4-5.37-0.46-7.57-0.17
					C17.42,13.5,19.58,13.59,21.96,13.92z"/>
			</g>
			
				<path style="clip-path:url(#SVGID_00000104667373478261915240000007992201573762275516_);fill-rule:evenodd;clip-rule:evenodd;" d="
				M67.29,10.22c-0.3-0.02-7.12-0.1-16.15,4.29c0.15-0.22,0.29-0.46,0.42-0.69c3.26-4.72,3.19-8.59,3.19-8.74l-0.03-1.16l-0.51,0.1
				l-0.64,0.12c-0.19,0.03-4.67,0.93-10.44,4.69c-4.94,3.22-11.83,9.3-16.99,20.06c-0.02-0.08-0.12-0.4-0.12-0.4l-0.61-0.22
				l-0.05-0.02v0.02c-0.05-0.02-0.29-0.12-0.4-0.17c-0.61-0.27-1.69-0.71-3.07-1c0.52-0.74,0.96-1.28,0.96-1.28V25.8l1.97-2.67
				l-1.16,0.29c-0.02,0-0.39,0.1-0.91,0.3c2.65-4.12,7.21-8.29,7.26-8.34l2.19-1.99l2.45-1.59l-2.9,0.86l-2.78,1.08h-0.02
				c-4.22,1.81-7.48,3.56-9.72,5.23c0.03-0.07,0.08-0.13,0.12-0.2c1.47-2.04,3-3.04,3.02-3.04l1.28-0.81l1-0.62l-2.67-0.39
				c-6.43-0.89-11.24-0.03-14.28,2.58c-3.05,2.62-3.14,6.01-3.14,6.16v0.74l0.71,0.2c2.48,0.74,4.07-0.81,4.54-1.74l1.11-2.13
				c0,0-1.2,0.37-1.32,0.42c1.18-1.94,3.12-3.22,5.8-3.83c1-0.22,1.96-0.32,2.75-0.34c-1.75,2.02-4.69,6.09-5.84,11.47
				c-0.46-0.3-0.84-0.47-0.91-0.49l-2.26-0.89l1.01,2.23c0,0,0.2,0.49,0.29,1.37c0.03,0.4,0.03,0.84,0,1.3
				c-0.59,0.57-1.15,1.16-1.67,1.81c-4.15,5.05-4.64,10.56-4.34,14.31l0.02,0.19c0.35,3.93,1.6,6.68,1.65,6.8h0.02l1.6,3.07
				l0.27-3.56l-0.02-0.05c0-0.02-0.03-0.64,0.66-1.48c1.13-1.37,4.05-3.16,11.46-3.81l0.28-0.05l0.23-0.13
				c0.03-0.03,0.64-0.51,1.47-1.4c0.05,0.12,0.1,0.25,0.15,0.37l-0.05-0.02l-1.69,1.52c0,0,0.07,0.47,0.1,0.66
				c-0.35,0.35-0.62,0.67-0.81,0.98c-0.24-0.3-0.51-0.46-0.76-0.51c-0.37-0.08-0.73-0.08-1-0.07c-0.19-0.1-1.06-0.62-1.06-0.62
				l-0.46,0.2c-0.1,0.05-2.29,1.03-3.43,3.49l-0.1,0.2l0.02,0.24c0,0.2,0.13,2.09,3.21,2.97l0.24,0.07c0,0,0.49-0.12,0.78-0.19
				c0.25,0.51,2.75,5.35,2.97,5.77c-2.11,2.58-3.17,5.53-2.94,8.17c0.05,0.54,0.17,1.08,0.32,1.59c-0.07,0.19-0.27,0.66-0.32,0.79
				c-0.13,0.12-4.83,4.57-4.83,4.57l-2.4,2.33l-2.14,1.99l2.63-1.28l3.04-1.45c0,0,6.04-3.26,6.14-3.31
				c0.05-0.02,0.32-0.08,0.47-0.13c1.65,1.18,3.9,1.67,6.34,1.42c2.51-0.27,5.13-1.33,7.39-2.99c3.97-2.92,6.31-7.26,5.96-11.07
				c-0.12-1.33-0.56-2.53-1.3-3.56c-0.57-0.78-1.3-1.4-2.16-1.89c0.66-1.27,1.01-2.95,1.05-4.86c1.86-0.34,3.17-0.73,3.98-1.15
				l2.68-1.42c0,0-1.77-0.25-2.18-0.32c1.32-0.73,2.18-1.32,2.51-1.77l1.62-2.16l-2.63,0.61c-0.02,0-1.38,0.3-2.68,0.2
				c-0.83-1.01-3.19-3.64-6.33-4.52c-0.32-0.69-0.76-1.32-1.28-1.86c0.19-0.34,0.57-1.08,0.64-1.18c2.94-0.74,5.8-1.72,8.54-2.92
				v0.03l0.44-0.2c9.58-4.07,15.96-10.29,19.64-14.82c4-4.91,5.7-8.83,5.77-8.99l0.59-1.33L67.29,10.22z M67.88,11.4
				c-0.08,0.17-1.75,4.03-5.72,8.89c-3.64,4.47-9.99,10.66-19.49,14.7h-0.02v0.02l-0.02-0.03c-2.89,1.3-5.92,2.35-9.06,3.12
				c-0.15,0.29-0.69,1.3-0.86,1.64c0.64,0.59,1.15,1.32,1.48,2.13c3.31,0.84,5.79,3.78,6.41,4.57c1.43,0.15,3-0.19,3.02-0.19
				l1.47-0.34l-0.91,1.21c-0.49,0.64-2.19,1.59-3.54,2.26c0.17,0.02,2.18,0.32,2.18,0.32l-1.5,0.79c-0.83,0.44-2.23,0.83-4.22,1.18
				c0.03,2.16-0.39,4.07-1.2,5.38c0.98,0.47,1.79,1.13,2.4,1.97c0.73,0.98,1.11,2.13,1.23,3.34c0.32,3.54-1.84,7.78-5.79,10.68
				c-4.56,3.34-10.12,3.91-13.41,1.47c-0.25,0.07-0.62,0.15-0.71,0.17c-0.12,0.07-6.16,3.34-6.16,3.34l-3.04,1.43l2.38-2.31
				c0,0,4.74-4.49,4.89-4.66c0.07-0.15,0.32-0.74,0.42-1c-0.19-0.52-0.3-1.08-0.35-1.65c-0.24-2.62,0.89-5.57,3.02-8.08
				c-0.24-0.44-2.9-5.65-3.24-6.31c-0.39,0.08-1,0.22-1,0.22l-0.13-0.03c-2.77-0.79-2.9-2.38-2.9-2.56v-0.13l0.05-0.12
				c1.06-2.31,3.12-3.22,3.21-3.27l0.25-0.1c0,0,0.78,0.44,1,0.57c0.24-0.03,0.61-0.05,1,0.05c0.62,0.15,0.84,0.91,0.89,1.62
				c0.02,0.24,0.03,0.46,0.03,0.64v0.1c0,0-0.2,0.56-0.32,0.91c0.39,0.35,2.02,1.89,2.5,2.33c0.35-0.25,0.96-0.69,1.6-1.3
				c-0.39,0.25-1.01,0.64-1.01,0.64l-1.06-0.19l-0.13-0.17c-0.15-0.2-1.37-1.89-1.5-3.24c-0.02-0.15,0-0.29,0-0.42
				c0.05-0.59,0.69-1.27,1.13-1.67c-0.03-0.17-0.1-0.64-0.1-0.64l1.35-1.23l0.27,0.05c0.17,0.03,0.34,0.08,0.49,0.15
				c-0.37-0.56-0.64-1.2-0.79-1.87c-1.05,1.23-1.87,1.87-1.91,1.91l-0.14,0.1l-0.17,0.02c-7.56,0.66-10.55,2.5-11.74,3.95
				c-0.83,1-0.74,1.77-0.74,1.81L7.5,55.6l-0.91-1.72c-0.05-0.12-1.28-2.8-1.62-6.67c0-0.05-0.02-0.12-0.02-0.19
				c-0.3-3.66,0.2-9.06,4.25-13.99c0.56-0.69,1.15-1.32,1.75-1.89c0.05-0.59,0.05-1.1,0-1.52c-0.08-0.98-0.32-1.52-0.32-1.52
				l-0.57-1.25l1.28,0.49c0.05,0.03,0.74,0.3,1.33,0.89c1.15-6.33,4.83-10.88,6.55-12.72c-0.94-0.02-2.35,0.03-3.83,0.37
				c-3.22,0.73-5.42,2.4-6.58,4.98l0.03-0.02l1.3-0.4l-0.62,1.2c-0.44,0.81-1.84,2.19-4.05,1.54l-0.4-0.12l0.02-0.42
				c0-0.13,0.07-3.34,2.97-5.84c2.95-2.53,7.64-3.36,13.94-2.46l1.5,0.2l-1.28,0.81c-0.02,0.02-1.6,1.03-3.14,3.16
				c-0.46,0.64-0.93,1.43-1.38,2.38c1.74-1.75,5.11-4.02,11.51-6.77l2.78-1.06l-2.19,1.99c-0.07,0.05-5.72,5.25-8.12,9.8
				c0.08-0.07,0.1-0.08,0.15-0.12c1.01-0.67,2.02-0.93,2.02-0.93l-1.25,1.72c-0.02,0-0.66,0.83-1.37,1.87
				c1.64,0.22,2.9,0.76,3.64,1.06c0.19,0.08,0.4,0.17,0.47,0.19c0.12,0.05,0.4,0.14,0.4,0.14l0.08,0.29
				c0.1,0.37,0.19,0.74,0.25,1.11c5.15-11.36,12.25-17.7,17.36-21.02c5.69-3.71,10.11-4.59,10.29-4.62l0.64-0.12l0.02,0.64
				c0,0.17,0.07,3.9-3.12,8.5c-0.39,0.71-0.83,1.38-1.32,2.06c9.62-5.08,17.06-4.99,17.4-4.99l0.83,0.02L67.88,11.4z"/>
			<g style="clip-path:url(#SVGID_00000104667373478261915240000007992201573762275516_);">
				<path class="st3" d="M23.21,58.85l-0.02,0.02C23.2,58.86,23.21,58.86,23.21,58.85C23.22,58.85,23.22,58.85,23.21,58.85z"/>
				<path class="st3" d="M13.24,38.14c-0.68,0.8-1.38,1.77-2.02,2.96c2.11,0.66,4.76-0.13,6.63-2.19c1.81-1.97,2.38-4.57,1.67-6.58
					l-0.34,0.1c1.3,4.32-2.45,6.33-2.45,6.33c1.89-2.23,0.51-3.8,0.51-3.8s-1.27,0.5-2.86,1.98c0.9,0.93-0.84,2.93-0.84,2.93
					S13.94,38.3,13.24,38.14z"/>
				<path class="st3" d="M19.63,24.26c-0.28-0.08-0.34-0.33-0.34-0.33c-0.94-2.8,8.59-8.3,8.59-8.3S23.19,19.62,19.63,24.26z
					 M19.91,23.03L19.91,23.03c0.89-1.1,1.82-2.14,2.73-3.1C20.83,21.43,20.14,22.42,19.91,23.03L19.91,23.03z"/>
			</g>
			<g style="clip-path:url(#SVGID_00000104667373478261915240000007992201573762275516_);">
				<path class="st3" d="M34.84,52.35c-0.15,0.47-0.46,0.94-1,1.39c0,0,0.87-0.49,1.39-1.44C35.11,52.32,34.97,52.34,34.84,52.35z"
					/>
			</g>
			
				<path style="clip-path:url(#SVGID_00000104667373478261915240000007992201573762275516_);fill-rule:evenodd;clip-rule:evenodd;fill:#FFFFFF;" d="
				M32.72,48.24c0.86-0.16,1.59-0.33,2.2-0.51c1.36-2.07-4.21-4.49-4.21-4.49C34.8,45.34,34.17,47.08,32.72,48.24z"/>
			<g style="clip-path:url(#SVGID_00000104667373478261915240000007992201573762275516_);">
				<path class="st0" d="M67.37,10.63c-0.34,0-7.78-0.08-17.4,4.99c0.49-0.67,0.93-1.35,1.32-2.06c3.19-4.61,3.12-8.34,3.12-8.5
					L54.4,4.42l-0.64,0.12c-0.19,0.03-4.61,0.91-10.29,4.62c-5.11,3.32-12.22,9.67-17.36,21.02c-0.07-0.37-0.15-0.74-0.25-1.11
					l-0.08-0.29c0,0-0.29-0.08-0.4-0.14c-0.07-0.02-0.29-0.1-0.47-0.19c-0.74-0.3-2.01-0.84-3.64-1.06
					c0.71-1.05,1.35-1.87,1.37-1.87l1.25-1.72c0,0-1.01,0.25-2.02,0.93c-0.05,0.03-0.07,0.05-0.15,0.12c2.4-4.56,8.05-9.75,8.12-9.8
					l2.19-1.99l-2.78,1.06c-6.4,2.75-9.77,5.01-11.51,6.77c0.46-0.94,0.93-1.74,1.38-2.38c1.54-2.13,3.12-3.14,3.14-3.16l1.28-0.81
					l-1.5-0.2c-6.29-0.89-10.98-0.07-13.94,2.46c-2.9,2.5-2.97,5.7-2.97,5.84l-0.02,0.42l0.4,0.12c2.21,0.66,3.61-0.73,4.05-1.54
					l0.62-1.2l-1.3,0.4l-0.03,0.02c1.16-2.58,3.36-4.25,6.58-4.98c1.48-0.34,2.89-0.39,3.83-0.37c-1.72,1.84-5.4,6.4-6.55,12.72
					c-0.59-0.59-1.28-0.86-1.33-0.89l-1.28-0.49l0.57,1.25c0,0,0.24,0.54,0.32,1.52c0.05,0.42,0.05,0.93,0,1.52
					c-0.61,0.57-1.2,1.2-1.75,1.89c-4.05,4.93-4.56,10.33-4.25,13.99c0,0.07,0.02,0.13,0.02,0.19c0.34,3.86,1.57,6.55,1.62,6.67
					L7.5,55.6l0.15-2.02c0-0.03-0.08-0.81,0.74-1.81c1.2-1.45,4.18-3.29,11.74-3.95l0.17-0.02l0.14-0.1
					c0.03-0.03,0.86-0.67,1.91-1.91c0.11,0.49,0.29,0.97,0.52,1.41c0.38,0.1,0.71,0.31,1,0.56c-0.62-0.82-1.03-1.82-1.13-2.92
					c-0.01-0.13-0.02-0.26-0.02-0.4c-1.35,1.87-2.61,2.83-2.61,2.83c-0.35,0.03-0.69,0.06-1.02,0.1c0.3-0.3,2.59-3.85,1.65-3.69
					c-2.48,0.29-5.91,4.35-5.91,4.35l-0.01,0.02c-8.24,1.85-7.72,5.6-7.72,5.6S2.02,42.66,9.63,33.39c0,0,0,0,0-0.01
					c0-0.01,0-0.01,0-0.01s0.26-0.56,1.86-2.03c0.23-2.24-0.36-3.49-0.36-3.49s1.86,0.73,1.84,2.31c0.83-9.13,7.51-15.14,7.51-15.14
					s-9.67-1.28-12.42,6.21c0,0,0.03,0.42,0.96,0.13c0,0-1.03,1.96-3.39,1.25c0,0,0.12-10.04,16.28-7.76c0,0-6.57,4.11-6.32,13.81
					c0.51-0.21,1-0.38,1.48-0.5c0.56-1.07,1.27-2.16,2.05-3.23c-0.57,0.21-1.38,0.26-2.43-0.3c0,0-2.43-3.51,12.72-10.01
					c0,0-7.76,7.06-9.14,12.16c0,0,0,0,0,0c1.14-1.05,1.89-1.63,1.89-1.63s-1.01,1.26-1.9,2.7c2.79,0.16,4.72,1.38,5.03,1.35
					c1.09,4.17,0.75,7.66-0.14,10.42c0.79-0.55,1.74-0.91,2.77-1c0.34-0.03,0.67-0.03,0.99,0c-0.57-1.19-2.49-5.32-2.68-7.42
					C36.14,8.47,53.86,5.06,53.86,5.06s0.1,3.71-3.09,8.29c0,0,1.6-3.41,1.06-5.62c0,0-13.5-1.15-23.54,24.87l1.07,6.07
					c0.78,0.12,1.52,0.41,2.16,0.82c-0.08-1.85-0.27-7.48,0.21-7.44c16.44-21.29,35.62-20.89,35.62-20.89s-6.72,15.59-24.94,23.32
					c0,0,14.83-6.63,21.75-21.11c0,0-13.72-3.49-30.96,20.01l-1.15,6.48c0.5,0.41,0.93,0.9,1.27,1.45c0.23,0.03,0.46,0.07,0.68,0.12
					c-0.33-0.64-0.76-1.22-1.29-1.71c0.17-0.34,0.71-1.35,0.86-1.64c3.14-0.78,6.18-1.82,9.06-3.12l0.02,0.03v-0.02h0.02
					c9.5-4.03,15.84-10.23,19.49-14.7c3.97-4.86,5.64-8.72,5.72-8.89l0.32-0.76L67.37,10.63z M17.98,25.63
					c-0.49,0.71-0.91,1.4-1.27,2.06c-0.19,0.05-0.37,0.1-0.57,0.17c0.02-0.98,0.12-1.89,0.25-2.75c0.02,0.02,0.05,0.02,0.05,0.02
					C17.02,25.44,17.53,25.6,17.98,25.63z M26.54,34.45c0.47,1.3,1.06,2.63,1.5,3.59c-0.05,0.02-0.1,0-0.15,0.02
					c-0.64,0.05-1.27,0.22-1.84,0.46C26.37,37.21,26.54,35.84,26.54,34.45z M29.88,38.2c0-0.29,0-2.41,0-2.8
					c0.13-0.15,0.49-0.47,1-0.94c-0.02,1.33,0.02,2.95,0.07,4.1C30.59,38.4,30.23,38.29,29.88,38.2z M35.08,37.12l-0.54,0.15
					c0,0,0,0,0,0l-1.92,0.54c13.82-20.38,28.11-22.9,28.11-22.9s-0.03,0.01-0.08,0.02c-1.33,0.4-4.67,1.62-9.01,4.61
					c4.36-1.77,6.92-1.55,6.92-1.55c-4.11,0.34-7.27,1.97-8.75,2.88c-0.92,0.7-1.87,1.48-2.85,2.34c4.8-1.86,7.59-1.62,7.59-1.62
					c-4.09,0.36-6.87,1.51-8.54,2.48c-1.49,1.37-3.03,2.94-4.61,4.73c6.18-2.49,9.79-2.18,9.79-2.18c-5.16,0.46-8.6,1.94-10.63,3.15
					C38.74,31.91,36.9,34.35,35.08,37.12z"/>
				<path class="st0" d="M38.3,59.04c-0.61-0.84-1.42-1.5-2.4-1.97c0.77-1.25,1.19-3.04,1.2-5.07c-0.18,0.03-0.36,0.06-0.54,0.1
					c-0.03,2.21-0.56,4.07-1.5,5.2c1.13,0.43,2.1,1.13,2.8,2.09c2.62,3.58,0.62,9.52-4.45,13.23c-4.52,3.32-9.96,3.78-12.96,1.31
					l-1.03,0.26l-6.23,3.39l4.98-4.74l0.55-1.3c-1.39-3.6,0.69-8.6,5.17-11.89c2.25-1.65,4.74-2.6,7.03-2.82
					c-1.34-0.82-2.78-1.93-3.9-3.65c-0.03,0-0.06,0-0.09,0.01c-1.63,2.77-4.64,5.25-4.64,5.25c-0.37,0.62,0.25,2.04,0.25,2.04
					l-2.08-2.08l-0.03,1.5l-2.6-5.05l-1.27,0.27c-2.46-0.69-2.5-2.04-2.5-2.04c0.98-2.14,2.92-2.99,2.92-2.99l0.93,0.54
					c0,0,0.46-0.12,0.98,0c0.51,0.12,0.49,1.72,0.49,1.72l-0.4,1.16l3.07,2.89c0,0,1.48-0.87,2.82-2.38l-2.1,1.34l-0.16-0.03
					c-0.19,0.15-0.36,0.27-0.5,0.36c-0.13-0.12-0.33-0.31-0.58-0.54l-0.09-0.02l-0.15-0.22c-0.64-0.6-1.42-1.33-1.67-1.56
					c0.1-0.3,0.26-0.74,0.31-0.87c-0.13-0.35-0.22-0.71-0.25-1.05v-0.47c0.01-0.07,0.02-0.13,0.04-0.2
					c-0.14-0.33-0.36-0.59-0.69-0.68c-0.39-0.1-0.76-0.08-1-0.05c-0.22-0.13-1-0.57-1-0.57l-0.25,0.1
					c-0.08,0.05-2.14,0.96-3.21,3.27l-0.05,0.12v0.13c0,0.19,0.13,1.77,2.9,2.56l0.13,0.03c0,0,0.61-0.13,1-0.22
					c0.34,0.66,3,5.87,3.24,6.31c-2.13,2.51-3.26,5.47-3.02,8.08c0.05,0.57,0.17,1.13,0.35,1.65c-0.1,0.25-0.35,0.84-0.42,1
					c-0.15,0.17-4.89,4.66-4.89,4.66l-2.38,2.31l3.04-1.43c0,0,6.04-3.27,6.16-3.34c0.08-0.02,0.46-0.1,0.71-0.17
					c3.29,2.45,8.86,1.87,13.41-1.47c3.95-2.9,6.11-7.14,5.79-10.68C39.41,61.17,39.02,60.02,38.3,59.04z M22.74,58.75
					c0.52-0.44,2.72-2.38,4.25-4.66c0.67,0.88,1.47,1.67,2.46,2.4c-2.04,0.44-4.08,1.37-5.89,2.7c-0.24,0.17-0.47,0.35-0.71,0.54
					c-0.07-0.25-0.12-0.49-0.13-0.67C22.71,58.92,22.72,58.82,22.74,58.75z"/>
				<path class="st0" d="M36.27,46.13c-0.05,0.03-0.03-0.07-0.44-0.71c-0.19-0.13-0.43-0.28-0.7-0.44c0.29,0.69,0.54,1.41,0.75,2.18
					c0.02,0.08,0.04,0.16,0.06,0.24c0.42-0.15,0.76-0.3,1.02-0.43C36.78,46.76,36.63,46.45,36.27,46.13z"/>
				<path class="st0" d="M22.39,47.46l-1.35,1.23c0.01,0.08,0.07,0.48,0.1,0.64c-0.44,0.4-1.08,1.08-1.13,1.67c0,0.13,0,0.26,0,0.4
					c0.13,1.35,1.35,3.02,1.5,3.22l0.13,0.19l1.05,0.17l2.65-1.67c0,0,0.02-0.35,0.02-0.39c0.11-0.01,0.24-0.01,0.38-0.02l0,0
					c0.06,0,0.12-0.01,0.19-0.01c0.01,0,0.02,0,0.03,0c0.05,0,0.11-0.01,0.17-0.01c0.02,0,0.03,0,0.05,0c0.05,0,0.11-0.01,0.17-0.01
					c0.02,0,0.03,0,0.05,0c0.15-0.01,0.31-0.02,0.48-0.03c0,0,0.01,0,0.02,0c0.08-0.01,0.16-0.01,0.24-0.02c0.01,0,0.02,0,0.03,0
					c0.08-0.01,0.17-0.01,0.25-0.02c0.01,0,0.01,0,0.02,0c0.19-0.01,0.39-0.03,0.59-0.05c0,0,0.01,0,0.01,0
					c0.1-0.01,0.2-0.02,0.3-0.02c0.01,0,0.01,0,0.02,0c0.43-0.04,0.88-0.07,1.35-0.12c0,0,0,0,0,0c2.14-0.2,4.66-0.48,6.87-0.85l0,0
					c2.01-0.34,3.76-0.76,4.74-1.28l1.47-0.77c-0.31-0.05-1.97-0.3-2.13-0.31c0,0,0.01,0,0.01-0.01c-0.03,0-0.05-0.01-0.06-0.01
					c1.35-0.67,3.09-1.62,3.58-2.28l0.89-1.17l-1.43,0.33c-0.02,0-1.59,0.34-3.02,0.19c0-0.01-0.01-0.01-0.01-0.02c0,0,0,0,0,0
					c-0.11-0.14-0.27-0.34-0.48-0.57c-1.03-1.17-3.19-3.29-5.92-3.98c0-0.01-0.01-0.02-0.01-0.03c-0.21-0.05-0.43-0.1-0.65-0.13v0
					c-0.08-0.01-0.16-0.02-0.24-0.03c-0.02,0-0.04,0-0.06-0.01c-0.06-0.01-0.12-0.01-0.18-0.02c-0.03,0-0.05,0-0.08-0.01
					c-0.06,0-0.11-0.01-0.17-0.01c-0.02,0-0.05,0-0.07,0c-0.08,0-0.16-0.01-0.24-0.01c0,0,0,0,0,0c-0.08,0-0.16,0-0.24,0
					c-0.02,0-0.05,0-0.07,0c-0.06,0-0.11,0.01-0.17,0.01c-0.03,0-0.06,0-0.08,0.01c-0.06,0-0.11,0.01-0.17,0.02
					c-0.03,0-0.05,0.01-0.08,0.01c-0.08,0.01-0.16,0.02-0.25,0.03l-1.81,0.29l1.65,0.76c0.12,0.05,0.23,0.1,0.34,0.16
					c0.04,0.02,0.07,0.03,0.11,0.05c0.08,0.04,0.15,0.07,0.23,0.11c0.04,0.02,0.08,0.04,0.12,0.06c0.07,0.04,0.14,0.07,0.22,0.11
					c0.03,0.02,0.07,0.03,0.1,0.05c0.09,0.05,0.19,0.09,0.28,0.14c0.03,0.01,0.05,0.03,0.08,0.04c0.08,0.04,0.15,0.08,0.22,0.12
					c0.04,0.02,0.08,0.04,0.12,0.06c0.05,0.03,0.11,0.06,0.16,0.09c0.04,0.02,0.09,0.05,0.13,0.07c0.05,0.03,0.09,0.05,0.14,0.08
					c0.04,0.02,0.09,0.05,0.13,0.07c0.04,0.02,0.09,0.05,0.13,0.07c0.08,0.05,0.17,0.1,0.25,0.15c0.03,0.02,0.06,0.04,0.09,0.05
					c0.05,0.03,0.1,0.06,0.15,0.09c0.03,0.02,0.05,0.03,0.08,0.05c0.05,0.03,0.1,0.06,0.15,0.09c0.02,0.01,0.04,0.02,0.06,0.04
					c0.18,0.12,0.35,0.23,0.51,0.35c0,0,0,0,0,0l0,0c1.39,0.98,2.09,1.8,2.4,2.26c-0.31,0.17-0.83,0.42-1.6,0.69
					c-0.01,0-0.01,0-0.02,0.01c-0.11,0.04-0.22,0.07-0.33,0.11c-0.01,0-0.02,0.01-0.03,0.01c-0.05,0.02-0.11,0.03-0.16,0.05
					c-0.03,0.01-0.05,0.02-0.08,0.02c-0.1,0.03-0.2,0.06-0.3,0.09c-0.03,0.01-0.05,0.02-0.08,0.02c-0.05,0.01-0.1,0.03-0.15,0.04
					c-0.04,0.01-0.09,0.02-0.13,0.03c-0.05,0.01-0.1,0.03-0.15,0.04c-0.07,0.02-0.14,0.04-0.21,0.05c-0.06,0.01-0.12,0.03-0.19,0.04
					c-0.06,0.01-0.12,0.03-0.19,0.04c-0.05,0.01-0.1,0.02-0.15,0.03c-0.08,0.02-0.16,0.03-0.23,0.05c-0.05,0.01-0.1,0.02-0.15,0.03
					c-0.09,0.02-0.19,0.04-0.29,0.06c-0.05,0.01-0.1,0.02-0.15,0.03c-0.09,0.02-0.17,0.03-0.26,0.05c-0.04,0.01-0.08,0.02-0.13,0.02
					c-0.12,0.02-0.25,0.04-0.38,0.06c-0.04,0.01-0.09,0.01-0.14,0.02c-0.1,0.02-0.2,0.03-0.3,0.05c-0.05,0.01-0.09,0.01-0.14,0.02
					c-0.14,0.02-0.28,0.04-0.43,0.06c-0.04,0-0.08,0.01-0.11,0.01c-0.12,0.02-0.24,0.03-0.36,0.04c-0.05,0.01-0.1,0.01-0.15,0.02
					c-0.15,0.02-0.29,0.03-0.45,0.05c-0.02,0-0.05,0-0.07,0.01c-0.15,0.02-0.31,0.03-0.47,0.05c-0.05,0-0.11,0.01-0.16,0.01
					c-0.14,0.01-0.28,0.02-0.42,0.03c-0.04,0-0.08,0.01-0.12,0.01c-0.18,0.01-0.36,0.03-0.54,0.04c-0.05,0-0.11,0.01-0.16,0.01
					c-0.14,0.01-0.29,0.02-0.44,0.02c-0.06,0-0.11,0.01-0.17,0.01c-0.19,0.01-0.39,0.02-0.59,0.03c-0.05,0-0.1,0-0.15,0.01
					c-0.16,0.01-0.33,0.01-0.49,0.02c-0.06,0-0.13,0-0.2,0.01c-0.21,0.01-0.42,0.01-0.64,0.01l0,0c-0.25,0-0.51,0.01-0.78,0.01
					c-0.27-0.44-0.81-1.23-1.54-1.57c-0.14-0.06-0.29-0.1-0.44-0.13L22.39,47.46z M24.31,49.78c11,0.02,13.89-2.51,13.89-2.51
					s-0.98-2.46-6.67-5.03c4.81-0.76,8.79,4.72,8.79,4.72c1.6,0.22,3.43-0.19,3.43-0.19c-0.73,0.94-4.99,2.89-4.99,2.89L41.05,50
					c-3.29,1.72-16.2,2.43-16.2,2.43l-0.03,0.59l-2.23,1.42l-0.64-0.12c0,0-1.54-2.04-1.38-3.27c0.03-0.56,1.16-1.48,1.16-1.48
					l-0.1-0.67l0.93-0.83C23.53,48.21,24.31,49.78,24.31,49.78z"/>
				<path class="st0" d="M25,48.88c-0.15-0.11-0.29-0.23-0.42-0.35c0.09,0.12,0.17,0.24,0.24,0.35C24.88,48.88,24.94,48.88,25,48.88
					z"/>
			</g>
			<g style="clip-path:url(#SVGID_00000104667373478261915240000007992201573762275516_);">
				<path class="st2" d="M32.61,37.81l1.92-0.54c12.79-19.41,26.19-22.36,26.19-22.36S46.43,17.43,32.61,37.81z"/>
				<path class="st2" d="M31.53,42.23c5.69,2.56,6.67,5.03,6.67,5.03s-2.89,2.53-13.89,2.51c0,0-0.78-1.57-1.75-1.72l-0.93,0.83
					l0.1,0.67c0,0-1.13,0.93-1.16,1.48c-0.15,1.23,1.38,3.27,1.38,3.27l0.64,0.12l2.23-1.42l0.03-0.59c0,0,12.91-0.71,16.2-2.43
					l-2.29-0.34c0,0,4.27-1.94,4.99-2.89c0,0-1.82,0.4-3.43,0.19C40.32,46.96,36.34,41.47,31.53,42.23z M33.26,51.49
					c-0.02,0-0.04,0.01-0.07,0.01c-0.06,0.01-0.12,0.02-0.18,0.03c-6.09,0.86-8.05,0.51-8.67,0.2l0.05,0.94l-1.16,0.89l-0.34-0.08
					l-0.22-0.64v-0.02c0,0-0.52-1.45-0.19-1.79c0.34-0.32,0.74-0.25,0.74-0.25l0.13-0.13v-0.62L23.75,50
					c2.13,2.31,7.88,1.72,9.26,1.54c0.07-0.01,0.13-0.02,0.18-0.03C33.22,51.5,33.24,51.49,33.26,51.49c0.01,0,0.03,0,0.04-0.01
					C33.3,51.48,33.29,51.49,33.26,51.49z"/>
				<path class="st2" d="M23.57,59.19c1.81-1.33,3.85-2.26,5.89-2.7c-1-0.73-1.79-1.52-2.46-2.4c-1.54,2.28-3.73,4.22-4.25,4.66
					c-0.02,0.07-0.03,0.17-0.02,0.3c0.02,0.19,0.07,0.42,0.13,0.67C23.1,59.55,23.33,59.36,23.57,59.19z M23.21,58.85
					C23.22,58.85,23.22,58.85,23.21,58.85c0.73-0.66,2.39-2.2,3.71-4.03c0.44,0.52,0.93,1.03,1.47,1.48
					C26.59,56.81,24.81,57.69,23.21,58.85c0,0-0.01,0.01-0.02,0.02L23.21,58.85z"/>
				<path class="st2" d="M26.54,34.45c0,1.38-0.17,2.75-0.49,4.07c0.57-0.24,1.2-0.4,1.84-0.46c0.05-0.02,0.1,0,0.15-0.02
					C27.6,37.09,27.01,35.75,26.54,34.45z M26.52,37.9c0.1-0.49,0.17-0.98,0.24-1.47c0.19,0.47,0.37,0.89,0.56,1.28
					C27.04,37.75,26.79,37.81,26.52,37.9z"/>
				<path class="st2" d="M29.88,35.4c0,0.39,0,2.51,0,2.8c0.35,0.08,0.71,0.2,1.06,0.35c-0.05-1.15-0.08-2.77-0.07-4.1
					C30.37,34.93,30.01,35.25,29.88,35.4z M30.2,37.9c0-0.47,0-2.01,0-2.29c0.05-0.05,0.08-0.07,0.13-0.13
					c0.02,0.86,0.03,1.74,0.05,2.48C30.33,37.93,30.27,37.91,30.2,37.9z"/>
				<path class="st2" d="M16.72,27.69c0.35-0.66,0.78-1.35,1.27-2.06c-0.46-0.03-0.96-0.19-1.54-0.51c0,0-0.03,0-0.05-0.02
					c-0.13,0.86-0.24,1.77-0.25,2.75C16.35,27.79,16.53,27.74,16.72,27.69z M16.65,25.76c0.19,0.08,0.35,0.14,0.52,0.19
					c-0.22,0.35-0.44,0.71-0.64,1.06C16.57,26.59,16.6,26.19,16.65,25.76z"/>
				<path class="st2" d="M10.15,44.68c1.27,1.18,4.84-0.61,8-3.98c0.2-0.22,0.42-0.46,0.61-0.67c2.46-3.8,2.13-6.73,1.82-7.93
					c-1.67-0.03-4.47,1.64-6.99,4.34C10.42,39.82,8.89,43.5,10.15,44.68z M14.38,36.94c1.59-1.48,2.86-1.98,2.86-1.98
					s1.38,1.57-0.51,3.8c0,0,3.75-2.01,2.45-6.33l0.34-0.1c0.71,2.01,0.13,4.61-1.67,6.58c-1.87,2.06-4.52,2.85-6.63,2.19
					c0.65-1.19,1.34-2.17,2.02-2.96c0.7,0.16,0.3,1.73,0.3,1.73S15.29,37.87,14.38,36.94z"/>
				<path class="st2" d="M21,59.68c-0.02,0.05-0.02,0.22-0.02,0.22s-0.02,1.06-0.03,1.67c0.3-0.34,0.61-0.66,0.94-0.98
					C21.69,60.39,21.44,60.14,21,59.68z"/>
			</g>
			
				<path style="clip-path:url(#SVGID_00000104667373478261915240000007992201573762275516_);fill-rule:evenodd;clip-rule:evenodd;" d="
				M42.42,34.49c18.22-7.73,24.94-23.32,24.94-23.32s-19.19-0.4-35.62,20.89c-0.48-0.04-0.29,5.59-0.21,7.44
				c-0.65-0.41-1.38-0.7-2.16-0.82l-1.07-6.07C38.33,6.58,51.83,7.73,51.83,7.73c0.54,2.21-1.06,5.62-1.06,5.62
				c3.19-4.57,3.09-8.29,3.09-8.29S36.14,8.47,26.25,31.2c0.19,2.1,2.11,6.24,2.68,7.42c-0.32-0.03-0.65-0.03-0.99,0
				c-1.03,0.09-1.98,0.45-2.77,1c0.89-2.76,1.23-6.24,0.14-10.42c-0.31,0.02-2.25-1.19-5.03-1.35c-0.82,1.33-1.53,2.81-1.21,3.56
				c-0.05,0.03-0.09,0.06-0.14,0.09c2.64-1.64,4.99-2.15,6.1-1.09c0.49,0.46,0.69,1.16,0.64,2.02c0.38,4.07-1.71,7.9-3.2,10.11
				c0-0.06-0.02-0.11-0.04-0.15c-0.05-0.08-0.15-0.19-0.39-0.14c-2.95,0.34-6.86,3.89-7.98,4.96c-1.66,0.16-3.2-0.07-4.07-1.02
				c-0.77-0.72-0.82-2.06-0.3-3.71c-0.14,0.37-0.21,0.57-0.21,0.57c1.62-6.37,6.28-11.86,9.49-15.03c0.48-0.47,0.92-0.89,1.32-1.26
				c1.38-5.1,9.14-12.16,9.14-12.16C14.27,21.12,16.7,24.63,16.7,24.63c1.04,0.56,1.85,0.52,2.43,0.3
				c-0.78,1.06-1.48,2.15-2.05,3.23c-0.48,0.12-0.98,0.29-1.48,0.5c-0.25-9.7,6.32-13.81,6.32-13.81
				C5.75,12.59,5.63,22.63,5.63,22.63c2.36,0.71,3.39-1.25,3.39-1.25c-0.93,0.29-0.96-0.13-0.96-0.13
				c2.75-7.49,12.42-6.21,12.42-6.21s-6.68,6.01-7.51,15.14l0,0c0,0,0,0,0,0c-0.01,0.05-2.14,7.81-7.2,12
				c0.56-0.61,1.07-1.21,1.53-1.79L6.88,40.8c3.65-5.01,2.82-7.25,2.76-7.41c0,0,0,0,0,0.01C2.02,42.66,7.1,53.64,7.1,53.64
				s-0.52-3.74,7.72-5.6l0.01-0.02c0,0,3.43-4.07,5.91-4.35c0.94-0.16-1.35,3.39-1.65,3.69c0.33-0.04,0.67-0.07,1.02-0.1
				c0,0,1.26-0.96,2.61-2.83c0,0.13,0.01,0.26,0.02,0.4c0.1,1.1,0.51,2.1,1.13,2.92c-0.34-0.29-0.73-0.52-1.18-0.59l-0.4-0.07
				l-1.6,1.45c0,0,0.07,0.47,0.1,0.66c-0.69,0.66-1.06,1.25-1.11,1.75v0.47c0.13,1.43,1.33,3.09,1.57,3.41l0.2,0.29l1.33,0.22
				l2.1-1.34c-1.34,1.51-2.82,2.38-2.82,2.38l-3.07-2.89l0.4-1.16c0,0,0.02-1.6-0.49-1.72c-0.52-0.12-0.98,0-0.98,0l-0.93-0.54
				c0,0-1.94,0.84-2.92,2.99c0,0,0.03,1.35,2.5,2.04l1.27-0.27l2.6,5.05l0.03-1.5l2.08,2.08c0,0-0.62-1.42-0.25-2.04
				c0,0,3-2.48,4.64-5.25c0.03,0,0.06,0,0.09-0.01c1.12,1.72,2.56,2.84,3.9,3.65c-2.3,0.22-4.78,1.17-7.03,2.82
				c-4.48,3.29-6.56,8.29-5.17,11.89l-0.55,1.3l-4.98,4.74l6.23-3.39l1.03-0.26c3,2.46,8.44,2.01,12.96-1.31
				c5.08-3.71,7.07-9.65,4.45-13.23c-0.7-0.96-1.67-1.65-2.8-2.09c0.94-1.13,1.47-2.99,1.5-5.2c2.07-0.35,3.88-0.79,4.9-1.32
				l2.4-1.27c0,0-1.6-0.24-2.18-0.32c1.48-0.79,2.41-1.42,2.77-1.89l1.45-1.92l-2.35,0.52c-0.02,0.02-1.45,0.3-2.78,0.2
				c-0.79-1-3.69-4.31-7.44-4.77c-0.34-0.56-0.77-1.05-1.27-1.45l1.15-6.48C50.45,9.89,64.17,13.38,64.17,13.38
				C57.25,27.86,42.42,34.49,42.42,34.49z M19.3,23.93c-0.94-2.8,8.59-8.3,8.59-8.3s-4.7,4-8.25,8.64
				C19.36,24.18,19.3,23.93,19.3,23.93z M14.86,53.51l-0.35-0.27c0,0,1.32-2.21,2.53-2.62l0.39,0.17
				C17.43,50.79,16.53,52.85,14.86,53.51z M25,48.88c-0.06,0-0.12,0-0.18,0c-0.07-0.11-0.15-0.23-0.24-0.35
				C24.71,48.65,24.85,48.77,25,48.88z M31.8,56.8c0,0-2.18-1.52-2.46-2.94l0.73,0.2c0,0,0.64,2.16,2.45,2.75
				c0,0-7.44,2.45-9.33,8.76c-1.69-0.62-3.48,2.24-3.48,2.24C22.02,58.72,31.8,56.8,31.8,56.8z M20.5,72.29l-5.15,3.59l3.29-2.95
				l0.65-1.4c-0.06-0.01-0.13-0.02-0.2-0.03l-0.13-0.44c1.77,0.42,1.99,2.16,1.99,2.16S20.84,72.74,20.5,72.29z M24.97,74.68
				l-0.01,0.02c-0.81,0.01-1.29-0.07-1.29-0.07c0.84-4.24-2.68-5.69-2.68-5.69s1.07-0.31,2.62-0.89c3.56,0.95,4.08,4.57,4.08,4.57
				L24.97,74.68z M31.37,73.06c-0.48,0.25-0.95,0.47-1.41,0.65c-0.5-5.03-3.22-6.33-4.02-6.6c0.73-0.32,1.5-0.68,2.26-1.08
				c3.09,0.99,4.51,4.46,4.51,4.46L31.37,73.06z M35.82,69.36c-0.3,0.39-0.63,0.78-0.99,1.19C34,66.64,30.65,65.23,30.01,65
				c0.57-0.35,1.12-0.72,1.63-1.12c2.14-0.26,4.37,2.57,4.37,2.57L35.82,69.36z M37.63,66.38c-2.01-3.34-4.18-3.58-4.71-3.58
				c0.38-0.36,0.71-0.74,1.01-1.13c2.08-0.06,3.39,1.34,3.39,1.34l0.73,2.21C37.94,65.59,37.8,65.98,37.63,66.38z M35.08,58.04
				c-0.05-0.15,3.13,1.49,3.25,5.04c-1.74-2.64-3.41-2.51-3.75-2.44C34.98,59.83,35.18,58.96,35.08,58.04z M34.74,56.88
				c-1.58-2.41-0.69-4.03-0.39-4.46c0.29-0.04,0.58-0.08,0.87-0.12c0,0,0,0,0,0c0.29-0.04,0.57-0.09,0.85-0.13
				C36.07,55.31,34.74,56.88,34.74,56.88z M32.51,41.61C32.51,41.61,32.51,41.61,32.51,41.61c0.08,0,0.16,0,0.24,0.01
				c0.02,0,0.05,0,0.07,0c0.06,0,0.11,0.01,0.17,0.01c0.03,0,0.05,0,0.08,0.01c0.06,0.01,0.12,0.01,0.18,0.02
				c0.02,0,0.04,0,0.06,0.01c0.08,0.01,0.16,0.02,0.24,0.03v0c3.61,0.57,6.39,3.86,7.06,4.72c1.43,0.15,3-0.19,3.02-0.19l1.45-0.32
				l-0.89,1.18c-0.49,0.66-2.23,1.6-3.58,2.28c0.19,0.03,2.19,0.32,2.19,0.32l-1.48,0.78c-0.98,0.51-2.73,0.93-4.74,1.28
				c-2.21,0.38-4.74,0.66-6.87,0.85c0,0,0,0,0,0c-0.47,0.04-0.92,0.08-1.35,0.12c-0.01,0-0.01,0-0.02,0c-0.1,0.01-0.2,0.02-0.3,0.02
				c0,0-0.01,0-0.01,0c-0.2,0.02-0.4,0.03-0.59,0.05c-0.01,0-0.01,0-0.02,0c-0.09,0.01-0.17,0.01-0.25,0.02c-0.01,0-0.02,0-0.03,0
				c-0.08,0.01-0.16,0.01-0.24,0.02c0,0-0.01,0-0.02,0c-0.17,0.01-0.33,0.02-0.48,0.03c-0.02,0-0.03,0-0.05,0
				c-0.06,0-0.11,0.01-0.17,0.01c-0.02,0-0.03,0-0.05,0c-0.06,0-0.11,0.01-0.17,0.01c-0.01,0-0.02,0-0.03,0
				c-0.07,0-0.13,0.01-0.19,0.01c-0.14,0.01-0.27,0.02-0.38,0.02c0,0.03-0.02,0.39-0.02,0.39l-2.65,1.67l-1.05-0.17l-0.13-0.19
				c-0.15-0.2-1.37-1.87-1.5-3.22c0-0.15,0-0.28,0-0.4c0-0.01,0-0.01,0-0.02c0.05-0.59,0.69-1.27,1.13-1.65
				c-0.03-0.19-0.1-0.66-0.1-0.66l1.35-1.21l0.25,0.03c0.96,0.17,1.67,1.2,1.99,1.72c0.26,0,0.52,0,0.78-0.01
				c0.22,0,0.43-0.01,0.64-0.01c0.07,0,0.13,0,0.2-0.01c0.17,0,0.33-0.01,0.49-0.02c0.05,0,0.1,0,0.15-0.01
				c0.2-0.01,0.39-0.02,0.59-0.03c0.06,0,0.11-0.01,0.17-0.01c0.15-0.01,0.29-0.02,0.44-0.02c0.05,0,0.11-0.01,0.16-0.01
				c0.18-0.01,0.36-0.02,0.54-0.04c0.04,0,0.08-0.01,0.12-0.01c0.14-0.01,0.28-0.02,0.42-0.03c0.05,0,0.11-0.01,0.16-0.01
				c0.16-0.01,0.32-0.03,0.47-0.05c0.02,0,0.05,0,0.07-0.01c0.15-0.02,0.3-0.03,0.45-0.05c0.05-0.01,0.1-0.01,0.15-0.02
				c0.12-0.01,0.24-0.03,0.36-0.04c0.04,0,0.08-0.01,0.11-0.01c0.15-0.02,0.29-0.04,0.43-0.06c0.05-0.01,0.09-0.01,0.14-0.02
				c0.1-0.02,0.2-0.03,0.3-0.05c0.05-0.01,0.09-0.01,0.14-0.02c0.13-0.02,0.26-0.04,0.38-0.06c0.04-0.01,0.08-0.02,0.13-0.02
				c0.09-0.02,0.18-0.03,0.26-0.05c0.05-0.01,0.1-0.02,0.15-0.03c0.1-0.02,0.19-0.04,0.29-0.06c0.05-0.01,0.1-0.02,0.15-0.03
				c0.08-0.02,0.16-0.03,0.23-0.05c0.05-0.01,0.1-0.02,0.15-0.03c0.06-0.01,0.13-0.03,0.19-0.04c0.06-0.01,0.13-0.03,0.19-0.04
				c0.07-0.02,0.14-0.04,0.21-0.05c0.05-0.01,0.1-0.03,0.15-0.04c0.04-0.01,0.09-0.02,0.13-0.03c0.05-0.01,0.1-0.03,0.15-0.04
				c0.03-0.01,0.05-0.02,0.08-0.02c0.1-0.03,0.2-0.06,0.3-0.09c0.03-0.01,0.05-0.02,0.08-0.02c0.05-0.02,0.11-0.03,0.16-0.05
				c0.01,0,0.02-0.01,0.03-0.01c0.12-0.04,0.23-0.07,0.33-0.11c0.01,0,0.01,0,0.02-0.01c0.26-0.09,0.49-0.18,0.69-0.26
				c0,0.01,0,0.01,0.01,0.02c0.4-0.17,0.69-0.32,0.91-0.44c0,0-0.01-0.01-0.01-0.01c0,0,0.01,0,0.01,0
				c-0.31-0.46-1.01-1.28-2.4-2.26c0,0,0,0,0,0c-0.16-0.11-0.33-0.23-0.51-0.35c-0.02-0.01-0.04-0.02-0.06-0.04
				c-0.05-0.03-0.1-0.06-0.15-0.09c-0.03-0.02-0.05-0.03-0.08-0.05c-0.05-0.03-0.1-0.06-0.15-0.09c-0.03-0.02-0.06-0.04-0.09-0.05
				c-0.08-0.05-0.16-0.1-0.25-0.15c-0.04-0.02-0.08-0.05-0.13-0.07c-0.04-0.02-0.09-0.05-0.13-0.07c-0.05-0.03-0.09-0.05-0.14-0.08
				c-0.04-0.02-0.08-0.05-0.13-0.07c-0.05-0.03-0.1-0.06-0.16-0.09c-0.04-0.02-0.08-0.04-0.12-0.06c-0.07-0.04-0.15-0.08-0.22-0.12
				c-0.03-0.01-0.05-0.03-0.08-0.04c-0.09-0.05-0.19-0.09-0.28-0.14c-0.03-0.02-0.07-0.03-0.1-0.05c-0.07-0.04-0.14-0.07-0.22-0.11
				c-0.04-0.02-0.08-0.04-0.12-0.06c-0.07-0.04-0.15-0.07-0.23-0.11c-0.04-0.02-0.07-0.03-0.11-0.05c-0.11-0.05-0.23-0.1-0.34-0.16
				l-1.65-0.76l1.81-0.29c0.08-0.01,0.16-0.02,0.25-0.03c0.03,0,0.05-0.01,0.08-0.01c0.06-0.01,0.11-0.01,0.17-0.02
				c0.03,0,0.06,0,0.08-0.01c0.06,0,0.12-0.01,0.17-0.01c0.02,0,0.05,0,0.07,0C32.35,41.61,32.43,41.61,32.51,41.61z M35.12,46.91
				L35.12,46.91c0.07,0.24,0.13,0.48,0.19,0.71l0,0c-0.06,0.02-0.12,0.04-0.19,0.06c0,0,0,0-0.01,0c-0.07,0.02-0.13,0.04-0.2,0.06
				c0,0,0,0,0,0c-0.29,0.08-0.6,0.17-0.94,0.25C33.95,47.99,33.92,48,33.89,48c-0.06,0.01-0.13,0.03-0.19,0.04
				c-0.04,0.01-0.08,0.02-0.13,0.03c-0.06,0.01-0.12,0.03-0.18,0.04c-0.05,0.01-0.1,0.02-0.15,0.03c-0.06,0.01-0.12,0.02-0.18,0.04
				c-0.06,0.01-0.12,0.02-0.18,0.03c-0.05,0.01-0.11,0.02-0.16,0.03c0.34-0.28,0.63-0.62,0.63-0.62c-1.65-0.83-2.4-2.27-2.4-2.27
				c-0.03-0.05-0.04-0.13-0.08-0.18c-0.31-0.69-0.35-1.4-0.16-1.94c0,0,0,0,0,0c0.04-0.12,0.1-0.23,0.16-0.33l0.29,0.13
				c0.11,0.05,0.23,0.1,0.35,0.15c0.03,0.01,0.07,0.03,0.1,0.04c0.09,0.04,0.18,0.08,0.27,0.12c0.03,0.02,0.07,0.03,0.1,0.05
				c0.1,0.04,0.19,0.09,0.29,0.13c0.03,0.01,0.05,0.02,0.08,0.04c0.12,0.05,0.24,0.11,0.35,0.17c0,0,0.01,0,0.01,0.01
				c0.53,0.25,1.05,0.51,1.54,0.76c0.3,0.6,0.54,1.27,0.74,1.93c0,0,0,0,0,0C35.06,46.59,35.1,46.75,35.12,46.91z M35.13,44.99
				c0.27,0.16,0.52,0.31,0.7,0.44c0.07,0.1,0.12,0.19,0.16,0.27c0.15,0.43,0.29,0.87,0.41,1.32c0.02,0.06,0.04,0.13,0.06,0.19
				c-0.16,0.07-0.33,0.13-0.52,0.2c-0.02-0.08-0.04-0.16-0.06-0.24C35.67,46.4,35.42,45.67,35.13,44.99z M32.27,41.14
				c-0.71,0.37-1.59,0.56-2.55,0.54c-1.74-0.07-3.19-0.88-3.73-1.96c0.69-0.27,1.52-0.42,2.4-0.39
				C30.15,39.38,31.63,40.12,32.27,41.14z"/>
			<g style="clip-path:url(#SVGID_00000104667373478261915240000007992201573762275516_);">
				<path class="st4" d="M34.84,52.35c0.12-0.02,0.23-0.03,0.34-0.05c-0.28,0.04-0.56,0.08-0.84,0.12c-0.14,0.2-0.4,0.65-0.49,1.31
					C34.38,53.29,34.69,52.82,34.84,52.35z"/>
				<path class="st4" d="M35.23,52.3c0,0,0.01,0,0.01,0c-0.49,0.89-1.27,1.37-1.38,1.44c-0.1,0.78,0.03,1.85,0.88,3.15
					c0,0,1.33-1.57,1.33-4.71C35.79,52.22,35.51,52.26,35.23,52.3z"/>
			</g>
			<g style="clip-path:url(#SVGID_00000104667373478261915240000007992201573762275516_);">
				<path class="st4" d="M34.92,47.74c0.14-0.04,0.27-0.08,0.39-0.12c-0.06-0.23-0.12-0.47-0.19-0.71
					C35.15,47.19,35.1,47.47,34.92,47.74z"/>
				<path class="st4" d="M34.98,46.43c-0.2-0.66-0.45-1.33-0.74-1.93c-0.96-0.5-2.11-1.03-3.08-1.46l-0.29-0.13
					c-0.07,0.1-0.12,0.21-0.16,0.33C30.86,43.31,34.23,44.8,34.98,46.43z"/>
				<path class="st4" d="M30.71,43.25c-0.19,0.54-0.15,1.25,0.16,1.94c0.03,0.05,0.04,0.13,0.08,0.18l0,0c0,0,0.75,1.43,2.4,2.27
					C34.25,46.5,34.13,45,30.71,43.25z"/>
			</g>
			
				<path style="clip-path:url(#SVGID_00000104667373478261915240000007992201573762275516_);fill-rule:evenodd;clip-rule:evenodd;fill:#FEBE10;" d="
				M14.51,53.24c0,0,1.32-2.21,2.53-2.62l0.39,0.17c0,0-0.89,2.06-2.56,2.72L14.51,53.24L14.51,53.24z"/>
			
				<path style="clip-path:url(#SVGID_00000104667373478261915240000007992201573762275516_);fill-rule:evenodd;clip-rule:evenodd;fill:#FFFFFF;" d="
				M19.7,67.81c2.31-9.1,12.1-11.02,12.1-11.02s-2.18-1.52-2.46-2.94l0.73,0.2c0,0,0.64,2.16,2.45,2.75c0,0-7.44,2.45-9.33,8.76
				C21.49,64.95,19.7,67.81,19.7,67.81L19.7,67.81z"/>
			<g style="clip-path:url(#SVGID_00000104667373478261915240000007992201573762275516_);">
				<path class="st4" d="M19.29,71.52l-0.65,1.4l-3.29,2.95l5.15-3.59C20.24,71.96,19.86,71.64,19.29,71.52z"/>
			</g>
			<g style="clip-path:url(#SVGID_00000104667373478261915240000007992201573762275516_);">
				<path class="st4" d="M34.57,60.65c0.35-0.06,2.02-0.19,3.75,2.44c-0.12-3.56-3.3-5.2-3.25-5.04
					C35.18,58.96,34.98,59.83,34.57,60.65z"/>
				<path class="st4" d="M37.63,66.38c0.18-0.4,0.31-0.79,0.42-1.17l-0.73-2.21c0,0-1.32-1.4-3.39-1.34
					c-0.29,0.39-0.63,0.77-1.01,1.13C33.45,62.8,35.62,63.04,37.63,66.38z"/>
				<path class="st4" d="M32.71,70.48c0,0-1.42-3.47-4.51-4.46c-0.76,0.4-1.53,0.76-2.26,1.08c0.8,0.27,3.52,1.57,4.02,6.6
					c0.46-0.18,0.93-0.4,1.41-0.65L32.71,70.48z"/>
				<path class="st4" d="M24.97,74.68l2.72-2.06c0,0-0.51-3.62-4.08-4.57c-1.55,0.58-2.62,0.89-2.62,0.89s3.53,1.45,2.68,5.69
					c0,0,0.48,0.08,1.29,0.07L24.97,74.68z"/>
				<path class="st4" d="M36.02,66.45c0,0-2.23-2.83-4.37-2.57c-0.52,0.39-1.07,0.77-1.63,1.12c0.63,0.23,3.99,1.64,4.82,5.55
					c0.36-0.41,0.69-0.8,0.99-1.19L36.02,66.45z"/>
			</g>
			
				<path style="clip-path:url(#SVGID_00000104667373478261915240000007992201573762275516_);fill-rule:evenodd;clip-rule:evenodd;fill:#FEBE10;" d="
				M23.75,50l-0.39,0.03v0.62l-0.13,0.13c0,0-0.4-0.07-0.74,0.25c-0.34,0.34,0.19,1.79,0.19,1.79v0.02l0.22,0.64l0.34,0.08
				l1.16-0.89l-0.05-0.94c0.62,0.3,2.58,0.66,8.67-0.2C31.63,51.72,25.88,52.31,23.75,50L23.75,50z M33.02,51.53
				c0.2-0.03,0.3-0.05,0.3-0.05C33.22,51.5,33.12,51.51,33.02,51.53L33.02,51.53z"/>
			
				<path style="clip-path:url(#SVGID_00000104667373478261915240000007992201573762275516_);fill-rule:evenodd;clip-rule:evenodd;fill:#FFFFFF;" d="
				M18.96,71.05c1.77,0.42,1.99,2.16,1.99,2.16s-0.37-1.57-1.86-1.72L18.96,71.05L18.96,71.05z"/>
			
				<path style="clip-path:url(#SVGID_00000104667373478261915240000007992201573762275516_);fill-rule:evenodd;clip-rule:evenodd;fill:#FEBE10;" d="
				M14.06,47.23c-1.66,0.16-3.2-0.07-4.07-1.02c-1.75-1.65,0.2-6.55,4.35-10.9c4.15-4.37,8.94-6.55,10.68-4.89
				c0.49,0.46,0.69,1.16,0.64,2.02c0.38,4.07-1.71,7.9-3.2,10.11c0-0.06-0.02-0.11-0.04-0.15c-0.05-0.08-0.15-0.19-0.39-0.14
				C19.08,42.6,15.18,46.16,14.06,47.23z M18.76,40.02c2.46-3.8,2.13-6.73,1.82-7.93c-1.67-0.03-4.47,1.64-6.99,4.34
				c-3.17,3.39-4.71,7.07-3.44,8.25c1.27,1.18,4.84-0.61,8-3.98C18.35,40.48,18.57,40.24,18.76,40.02L18.76,40.02z"/>
			
				<path style="clip-path:url(#SVGID_00000104667373478261915240000007992201573762275516_);fill-rule:evenodd;clip-rule:evenodd;fill:#17366D;" d="
				M9.48,43.08c2.55-10.04,12.69-17.92,12.69-17.92s-3.76,4.69-3.1,6.26C11.52,36.36,9.48,43.08,9.48,43.08L9.48,43.08z"/>
			
				<path style="clip-path:url(#SVGID_00000104667373478261915240000007992201573762275516_);fill-rule:evenodd;clip-rule:evenodd;fill:#FEBE10;" d="
				M6.88,40.8c3.8-5.21,2.75-7.42,2.75-7.42s0.29-0.62,2.14-2.28l-0.47,2.43l-1.03,2.65l-1.54,2.45l-1.03,1.33L6.88,40.8L6.88,40.8z
				"/>
			
				<path style="clip-path:url(#SVGID_00000104667373478261915240000007992201573762275516_);fill-rule:evenodd;clip-rule:evenodd;fill:#17366D;" d="
				M5.77,42.17c8-8.74,5.37-14.31,5.37-14.31s1.86,0.73,1.84,2.31C12.97,30.17,10.84,37.96,5.77,42.17L5.77,42.17z"/>
			
				<path style="clip-path:url(#SVGID_00000104667373478261915240000007992201573762275516_);fill-rule:evenodd;clip-rule:evenodd;fill:#17366D;" d="
				M19.91,23.03c0.24-0.61,0.93-1.6,2.73-3.1C21.73,20.89,20.8,21.93,19.91,23.03L19.91,23.03L19.91,23.03z"/>
			<g style="clip-path:url(#SVGID_00000104667373478261915240000007992201573762275516_);">
				<path class="st5" d="M61.26,14.76c0,0-0.45,0.08-1.25,0.32c0.35-0.09,0.57-0.14,0.67-0.16C61.06,14.81,61.26,14.76,61.26,14.76z
					"/>
				<path class="st5" d="M58.55,18c0,0-2.55-0.23-6.92,1.55c4.34-3,7.68-4.21,9.01-4.61c-1.14,0.29-13.9,3.82-26.1,22.34l0.54-0.15
					c1.82-2.77,3.66-5.21,5.47-7.35c2.02-1.21,5.46-2.69,10.63-3.15c0,0-3.61-0.31-9.79,2.18c1.57-1.79,3.11-3.35,4.61-4.73
					c1.68-0.97,4.45-2.12,8.54-2.48c0,0-2.79-0.24-7.59,1.62c0.98-0.86,1.93-1.64,2.85-2.34C51.27,19.97,54.44,18.34,58.55,18z"/>
			</g>
			
				<path style="clip-path:url(#SVGID_00000104667373478261915240000007992201573762275516_);fill-rule:evenodd;clip-rule:evenodd;fill:#FEBE10;" d="
				M28.39,39.33c-0.88-0.03-1.7,0.12-2.4,0.39c0.54,1.08,1.99,1.89,3.73,1.96c0.96,0.02,1.84-0.17,2.55-0.54
				C31.63,40.12,30.15,39.38,28.39,39.33L28.39,39.33z"/>
		</g>
	</g>
</g>
</svg>
